<?xml version="1.0" encoding="utf-8" ?>
<svg baseProfile="full" height="300mm" version="1.1" viewBox="0,0,200,300" width="200mm" xmlns="http://www.w3.org/2000/svg" xmlns:ev="http://www.w3.org/2001/xml-events" xmlns:xlink="http://www.w3.org/1999/xlink"><defs /><rect fill="#222222" height="300" width="200" x="0" y="0" /><text fill="#FFFFFF" style="font-size:12px; font-family:Arial; font-weight:bold;" x="10" y="20">ZHENGTU</text><text fill="#FFFFFF" style="font-size:4px; font-family:Arial" x="10" y="280">ATHLETE</text><text fill="#FFFFFF" style="font-size:9px; font-family:Arial" x="10" y="290">KIOTO</text><text fill="#FFFFFF" style="font-size:4px; font-family:Arial" x="120" y="280">STATISTICS</text><text fill="#FFFFFF" style="font-size:3px; font-family:Arial" x="120" y="285">Number: 1</text><text fill="#FFFFFF" style="font-size:3px; font-family:Arial" x="120" y="290">Weekly: 1.0</text><text fill="#FFFFFF" style="font-size:3px; font-family:Arial" x="141" y="285">Total: 10.6 km</text><text fill="#FFFFFF" style="font-size:3px; font-family:Arial" x="141" y="290">Avg: 10.6 km</text><text fill="#FFFFFF" style="font-size:3px; font-family:Arial" x="167" y="285">Min: 10.6 km</text><text fill="#FFFFFF" style="font-size:3px; font-family:Arial" x="167" y="290">Max: 10.6 km</text><polyline fill="none" points="32.68833166582044,70.99783904032665 32.592803309089504,70.96970056943246 33.11820927099325,70.82900816886104 33.66749732196331,70.88528513829806 34.26454955118243,70.7727311871422 34.90936595888343,70.85714665506384 36.604994290159084,70.85714665506384 39.852958417730406,70.57576165499631 40.21118975523859,70.4913460954267 40.45001064706594,70.4913460954267 40.66494944959413,70.6320386795851 41.09482705476694,70.60390016878955 41.71576137316879,70.46320756935165 42.145638978341594,70.43506904030801 45.178664303268306,70.40693050806294 47.423580685514025,70.2099606974516 51.53130002331454,70.09740645272541 51.74623882584274,70.2099606974516 53.32245671132114,70.06926788389683 54.92255668586586,69.84415922287735 55.97336860955693,69.81602062642924 57.19135515729431,69.90043640651857 58.43322379433084,69.7316048189241 59.17356855876278,69.67532759861206 61.32295658416115,69.56277312128805 63.233523718081415,69.56277312128805 65.69337890285533,69.45021859483677 66.00384606211446,69.39394131340669 66.31431322149001,69.39394131340669 67.34124305588193,69.25324805598939 68.0338236419484,69.25324805598939 68.75028631708119,69.16883206486818 69.49063108139671,69.11255472211633 70.20709375664592,69.16883206486818 71.73554746364243,69.05627736714086 72.33259969297796,69.05627736714086 72.6430668522371,69.11255472211633 72.90576983313076,69.0 73.74164295429364,69.05627736714086 76.48808320914395,69.0 77.01348917093128,69.11255472211633 77.41948468692135,69.39394131340669 78.15982945123687,70.26623780158116 78.49417869967874,70.74459269177169 79.23452346399426,71.61688462671009 79.47334435582161,71.84199174543028 79.73604733671527,72.20779039579793 80.78685926028993,73.50215069859405 81.16897268709727,73.92422331051785 81.45555775717366,74.14932842197595 81.5510861139046,74.34629523390322 81.90931745141279,74.880918682029 82.48248759156559,75.58436890452867 83.48553533689119,76.59733386538574 84.08258756622672,77.49774383503245 84.24976219038945,77.66657035556273 84.7274039738113,78.51070130593143 85.6588054515887,79.94571760221152 85.80209798668511,80.48032948197215 86.06480096757878,80.8179785211687 86.18421141337603,81.07121501147049 86.39915021602064,81.29631390591385 86.32750394847244,81.57768724858761 86.35138603765517,81.83092299546115 86.63797110761516,82.33739374575089 87.02008453453891,83.2377837432141 87.18725915870164,83.40660651901271 88.0231322797481,83.91307418554788 88.40524570655543,83.9693483095325 88.78735913324635,84.16630764707224 89.71876061102375,84.75718476047041 90.41134119697381,85.37619743210962 91.4860352097312,86.81117565830937 92.65625757933594,88.21800933234044 93.39660234365147,89.230924842268 94.78176351566799,90.89097224417492 95.33105156675447,91.70692384368158 95.83257543924265,92.21337526669959 96.1430425986182,92.60728124398156 96.69233064958826,93.45136346211075 97.38491123553831,94.09849129826762 97.79090675152838,94.63307394261938 98.2446664457675,95.13951963972067 98.69842614012305,95.78664325497812 99.08053956693038,96.20867952366825 100.15523357968777,97.75613995455205 102.54344249691349,100.65408641999238 103.18825890449807,101.35746659102733 103.52260815305635,101.83576401553 103.78531113395002,102.31406055620755 104.02413202566095,102.53914097533561 104.31071709573735,102.96116623381386 105.9346991594648,104.93060834170319 106.651161834714,105.97159311664291 108.91996030614246,108.75691017103964 109.3020737329498,109.15079097199487 110.71111699414905,111.0639177657431 111.59475429356098,112.07674387353472 112.0485139878001,112.75195907719899 113.64861396246124,114.66505925654201 114.96212886681315,116.3249435449834 115.2725960261887,116.80321331409505 115.98905870132148,117.59094983083196 116.15623332560062,117.84415034513222 116.37117212812882,118.09735061170068 116.68163928738795,118.54748380742967 117.92350792442448,119.95414499961771 117.99515419197269,120.15107695653569 119.33255118550733,122.06412245670799 120.19230639573652,122.93624144935166 120.47889146592934,123.30196789451293 120.90876907098573,123.63956107760896 121.17147205187939,124.00528652922367 121.33864667615853,124.37101146418718 121.48193921113852,124.59607270575361 122.41334068891592,125.72137597919209 123.46415261237416,126.90293915220536 124.63437498197891,128.33768718421925 124.99260631960351,128.78780257533072 125.25530930049717,129.26604932104237 125.8523615298327,130.05374791761278 126.37776749162003,130.6445202922623 127.66740030702204,132.27617032427224 127.90622119861655,132.44496111993794 128.88538685475942,133.79528352458146 129.21973610320129,134.4985736545059 129.3630286382977,134.69549454856315 130.29443011595868,135.7082282094052 130.36607638350688,135.87701676780125 130.9392465237761,136.524038555508 131.72735546634067,137.62115876126336 131.8228838230716,137.874339687085 131.87064800143708,138.07125801374787 132.03782262571622,138.3244384994323 132.13335098233074,138.57761873753043 132.27664351731073,138.63388097906136 134.23497482948005,140.74370621092385 134.37826736457646,141.02501494291937 134.97531959379558,141.8126777667494 136.02613151748665,143.0222981524712 137.60234940296505,145.07582679830375 138.48598670237698,146.00412892346503 139.03527475334704,146.79177660180721 140.10996876610443,148.17015427400474 140.18161503365263,148.33893470928888 140.61149263870902,148.9577953639382 140.85031353041995,150.02673301141476 141.49512993812095,151.51761236134917 141.75783291913103,152.47402101004263 142.3787672376493,153.88049790030345 142.6175881292438,154.75250973616494 142.97581946686842,155.37135506421328 143.1191120018484,155.84955271382933 143.40569707204122,156.49652459917706 143.40569707204122,156.7496870708128 143.52510751783848,157.25601127173286 144.0505134796258,158.77497793501243 144.4803910847986,159.84387506125495 144.50427317398135,160.12516304539167 144.57591944141313,160.3220644525427 144.766976154875,160.96902516498812 145.02967913576867,161.44721247884445 145.31626420584507,162.43171299202368 145.6267313651042,163.1630538078025 145.86555225681514,164.2038044851506 146.0566089701606,164.73824239696842 147.0596567154862,167.18539138082997 147.2745955181308,167.88859083503485 147.60894476645626,168.6199162423145 148.0627044606954,169.80128369192244 148.30152535240632,170.8138800742745 148.51646415505093,171.32017678103875 148.58811042259913,171.57332476321608 148.58811042259913,171.79834498418495 148.7791671359446,172.529659352178 149.04187011683825,173.03595270507503 149.61504025699105,174.61108125196188 149.8060969703365,174.94860755154514 149.94938950543292,175.25800627309945 149.97327159461565,175.5392775175278 150.11656412959564,175.9330567464931 150.2837387538748,176.1580731800641 150.42703128885478,176.74874038796406 150.7374984481139,177.56442146081827 151.26290440990124,178.49260714335833 151.7405461933231,179.08326902796398 152.0987775309477,179.6458029038913 153.00629691954236,180.82712006696966 153.57946705969516,181.642788297293 156.11096851201728,184.17415610689204 156.5647282062564,184.51166994584491 156.9946058114292,184.9054355355911 158.1409460917348,185.77734292548848 159.23952219367493,186.45236598618794 160.5769191874424,187.46489727916196 161.48443857603706,188.05553870578296 161.723259467748,188.2524188820389 162.27254751871806,188.58992740762187 163.08453855058178,189.4055711956462 165.04286986286752,191.0087256395782 165.2578086652793,191.14935274908203 165.5443937353557,191.28997978233383 165.71156835963484,191.48685750053846 166.16532805387396,191.76811112408177 166.64296983741224,192.1618656841456 167.2639041558141,192.49936911647092 167.4071966909105,192.66812066774582 167.4071966909105,192.8087468764861 167.38331460172776,192.92124778861762 167.21613997756504,193.20249985498958 166.71461610484403,193.70875280504697 165.95038925134577,194.29937999643153 165.2578086652793,195.17125577043043 164.8279310602229,195.64937994917273 164.1831146525219,196.6056256594893 163.58606242318638,197.42124421164044 162.86959974793717,198.26498483939213 162.48748632124625,198.6306049247214 162.10537289455533,199.16497181370505 161.34114604094066,200.4868220143544 160.7202117224224,201.38680127079715 159.5022251745686,202.51177094510058 159.12011174787767,202.90550917718792 157.87824311084114,204.39608420678996 157.59165804076474,204.84606743630138 157.0662520789774,205.38042150632828 156.87519536551554,205.52104081524885 156.73190283053555,205.77415537904017 155.7766192635754,207.06784817681182 155.10792076669168,207.88343379483558 154.98851032089442,208.08029890421312 154.20040137821343,208.92400482168887 153.3167640788015,210.27392857547966 152.8152402060805,210.8082714517659 152.64806558191776,211.08950410195393 152.05101335258223,211.9332002211886 151.0240835181903,213.11437017298886 150.6658521805657,213.39560032027657 150.21209248632658,213.90181381627917 150.14044621877838,214.0143055699882 150.11656412959564,214.2111660214432 149.68668652442284,214.88611500535626 149.68668652442284,215.0267291557102 150.1643283079611,215.61730775397155 152.8152402060805,216.06727149692597 154.8929819642799,216.20788500629715 156.4214356712764,216.20788500629715 157.83047893247567,216.37662111685495 158.33200280519668,216.5453571175749 158.5708236969076,216.82658354128944 158.54694160772488,217.24842260449077 158.6424699643394,217.838996139355 158.52305951854214,218.09209867092432 158.4991774293594,218.2889560245094 158.4991774293594,219.18887345076655 158.54694160772488,219.72319794390933 158.6424699643394,220.14503229196998 158.69023414270487,221.10118760514888 158.61858787515666,222.70414595052716 158.6424699643394,223.0978535011236 158.59470578609034,223.32282897573896 158.59470578609034,223.77277933910955 158.5708236969076,223.96963237738237 158.45141325087752,224.36333800537977 158.45141325087752,224.53206880568177 158.5708236969076,224.72892126717488 158.76188041025307,225.37572115950752 158.80964458850212,225.5725729801634 158.78576249955222,226.1912491575058 158.857408766984,226.4443435316207 158.80964458850212,227.28798966025352 158.857408766984,227.7941760191461 158.83352667780127,228.8909097383148 158.5708236969076,231.0 158.73799832107034,230.91563671902986 158.80964458850212,230.94375781569397" stroke="#4DD2FF" stroke-linecap="round" stroke-linejoin="round" stroke-width="0.5"><title>2018-06-23 10.6km</title><desc>11839211208</desc></polyline></svg>