<?xml version="1.0" encoding="utf-8" ?>
<svg baseProfile="full" height="300mm" version="1.1" viewBox="0,0,200,300" width="200mm" xmlns="http://www.w3.org/2000/svg" xmlns:ev="http://www.w3.org/2001/xml-events" xmlns:xlink="http://www.w3.org/1999/xlink"><defs /><rect fill="#222222" height="300" width="200" x="0" y="0" /><text fill="#FFFFFF" style="font-size:12px; font-family:Arial; font-weight:bold;" x="10" y="20">ZHENGTU</text><text fill="#FFFFFF" style="font-size:4px; font-family:Arial" x="10" y="280">ATHLETE</text><text fill="#FFFFFF" style="font-size:9px; font-family:Arial" x="10" y="290">KIOTO</text><text fill="#FFFFFF" style="font-size:4px; font-family:Arial" x="120" y="280">STATISTICS</text><text fill="#FFFFFF" style="font-size:3px; font-family:Arial" x="120" y="285">Number: 3</text><text fill="#FFFFFF" style="font-size:3px; font-family:Arial" x="120" y="290">Weekly: 1.0</text><text fill="#FFFFFF" style="font-size:3px; font-family:Arial" x="141" y="285">Total: 52.8 km</text><text fill="#FFFFFF" style="font-size:3px; font-family:Arial" x="141" y="290">Avg: 17.6 km</text><text fill="#FFFFFF" style="font-size:3px; font-family:Arial" x="167" y="285">Min: 10.0 km</text><text fill="#FFFFFF" style="font-size:3px; font-family:Arial" x="167" y="290">Max: 21.5 km</text><polyline fill="none" points="85.18573829421075,103.52675257142982 84.69172790454468,102.58410218273639 84.5384143354022,101.56122079271881 84.2317871968844,100.69878698875254 83.44818450976163,100.31771030563687 83.34597546362784,99.2346459706605 83.19266189436894,98.2318029669259 83.24376641749404,97.18884047312895 82.44312888942659,96.48684317441075 81.50621263304492,96.46678606953355 80.53522669471567,96.10575781032094 79.54720591532532,95.60432850301731 78.50808061292628,95.42381361949083 77.45192046946613,95.50404247833649 76.44686484895647,94.92238246274064 75.56105311575811,94.58140849936171 74.60710201837355,94.2604912535171 73.7042554441723,94.22037655861641 72.69919982383726,94.22037655861641 71.94966681872029,94.07997505794629 71.01275056233862,93.89945868607902 70.31432208040496,93.558482836248 69.7521723266691,92.67595418702695 69.44554518826772,91.51261453109328 69.88845105486689,90.61001837575168 70.29728723940207,89.68735997354088 70.60391437786166,88.66440723190317 71.21716865466442,87.66150689219648 71.5749003161909,86.6586011119216 71.98373650072608,85.69580644414236 72.30739848018857,84.75306513991382 72.66513014165685,83.8704944554338 71.94966681872029,83.26873930009606 71.09792476752773,82.70709938787331 70.22914787533227,82.10534044548695 69.5988587574102,81.30299214176193 68.93449995748233,80.54075802750594 68.23607147554867,79.75846185255796 67.60578235756839,79.07645735780534 67.14584165002452,78.23397774311888 67.11177196790231,77.21096162029426 67.16287649102742,76.20799914060626 67.40136426541721,75.14485297040665 67.07770228589652,74.10176021902589 66.60072673723334,73.39967524485837 66.56665705522755,72.25627400746453 66.61776157829445,71.21316495444626 66.83921451150673,70.1299300914252 66.65183126030024,69.12692918717221 66.71997062437003,68.12392283980444 66.51555253210245,67.1209110491618 67.21398101409432,66.21819578349823 66.70293578336714,65.3957180360303 66.61776157829445,64.41275202433462 66.49851769104134,63.36959870197461 66.19189055263996,62.466865112801315 65.83415889117168,61.44376171423937 65.10166072711581,60.601201721292455 64.18177931185346,60.099676092126174 63.2448630554718,59.53796577156754 62.393121004337445,59.01637608796591 61.62655315833399,58.37441753341409 60.82591563015012,57.832763268306735 60.02527810202446,57.2108619689825 59.2587102559628,56.54883570536913 58.52621209190693,56.00717608912964 57.74260940484237,55.425391769895214 57.16342480998719,54.68311256535526 56.24354339472484,54.201632568088826 55.45994070760207,53.59978080728615 54.65930317947641,52.877556106686825 54.18232763087144,52.57662831504422 53.26244621555088,52.014895125932526 52.59808741568122,51.37291224738874 51.71227568242466,50.87136157155328 50.877568472235,50.10900193690031 50.16210514924023,49.42688801867189 49.36146762105636,48.86514525406528 48.611934616055805,48.142902047155076 47.89647129300283,47.340406284012715 47.35135638026986,46.49778198135027 46.73810210340889,45.65515383600723 46.4825794880162,44.55170640570577 45.988569098350126,43.66894371662056 46.073743303422816,43.46831524447771 45.13682704715757,43.749195044481894 44.455433406168595,44.31095336341241 43.67183071910404,44.63195735012414 42.78601898584748,45.0733369213267 41.746893683448434,45.21377565465809 40.861081950133666,45.65515383600723 39.99230505793821,46.13665610391763 38.970214596542064,46.37740676730755 38.06736802228261,46.0764683890593 37.62446215568343,46.97928205343487 37.55632279161364,47.80184177371848 37.33486985828495,47.22003161891189 36.90899883257225,46.216906359870336 36.261674873763695,45.494652801105985 35.58028123277472,44.83258455868054 34.72853918164037,44.270827825777815 33.723483561188914,44.09026279889804 32.70139309973456,44.010011619189754 31.679302638338413,44.03007441740192 30.657212176942267,44.170513943754486 29.703261079557706,44.39120441234263 28.698205459222663,44.77239641897904 27.84646340791369,45.27396365060122 26.926581992651336,45.71534168806102 25.921526372316293,46.01628065454133 24.86536622879794,46.216906359870336 23.792171244276688,46.13665610391763 22.787115623883437,45.956092900480144 21.730955480365083,46.05640581304033 21.339154136832803,46.93915709537396 22.037582618824672,46.818782168847974 23.07670792134013,46.798719673475716 24.59280877240235,47.32034384524741 25.6319340748596,47.42065601714421 26.58588517224416,47.260156515971175 27.607975633640308,47.260156515971175 28.52785704890266,47.460780870649614 29.158146166766528,48.243213772482704 29.49884298723191,49.18614132862422 29.549947510357015,50.22937471992918 29.975818535895087,51.11210606590612 30.742386382014956,51.65378003125079 31.168257407669444,52.09514282895543 31.49191938707372,51.27260222114273 32.37773112033028,50.791113337065326 33.34871705865953,50.87136157155328 34.35377267905278,51.01179589802632 35.30772377649555,50.77105127305549 36.159465827571694,50.18925046766526 36.78975494549377,49.36670137559122 37.62446215568343,48.9253320604621 37.67556667875033,47.902153684190125 37.24969565321226,46.95921957545215 36.90899883257225,46.01628065454133 36.193535509635694,45.253900987503584 35.375863140507136,44.591831882324186 34.387842361058574,44.35107889219944 33.41685642278753,44.19057672454801 32.411800802336074,44.05013721344585 31.42378002294572,44.03007441740192 30.435759243613575,44.31095336341241 30.350585038540885,45.3341516268556 30.64017733593937,46.23696891842701 31.11715288454434,47.1799067131069 31.355640658875927,48.142902047155076 31.03197867947165,49.00558110533166 30.043957900023088,49.26639026016346 29.41366878215922,49.74788311739394 29.65215655649081,50.750989206761005 30.48686376668047,51.29266423074296 31.321570976870134,51.5334081761539 32.10517366393469,50.891423624707386 33.178368648397736,50.85129951623094 34.20045910985209,50.97167181568511 35.20551473030355,50.69080299498455 36.074291622499004,50.22937471992918 36.82382462749956,49.386763592105126 37.67556667875033,48.76483386634209 37.60742731462233,47.70152980873536 37.351904699229635,46.83884466200834 36.840859468560666,46.0764683890593 36.2105703506968,45.35421428126574 35.32475861738203,44.83258455868054 34.455981725186575,44.471455426479224 33.41685642278753,44.23070227949938 32.46290532540297,43.98994881883846 31.42378002294572,44.11032558839361 30.41872440255247,44.21063950311509 29.447738464165013,44.511580920472625 28.578961571969558,45.033211549322004 27.67611499776831,45.45452752058918 26.705129059322644,45.81565473138471 25.6319340748596,46.09653096277907 24.609843613463454,46.13665610391763 23.570718310947996,46.116593534417916 22.51455816748785,45.97615548732574 21.492467706033494,46.257031474873656 21.407293500960805,47.24009406850382 22.327174916281365,46.899032128523686 23.298160854610614,46.798719673475716 24.201007428811863,47.36046872055158 25.223097890266217,47.400593587139156 26.24518835172057,47.22003161891189 27.25024397217203,47.1598442569084 28.22122991050128,47.38053115498042 29.055937120632734,48.06265262771922 29.515877828351222,49.0657678659627 29.65215655649081,50.0688776584866 29.87360948987771,51.051919971680036 30.72535154101206,51.55347015742154 31.42378002294572,51.513346192703466 32.173313028004486,50.891423624707386 33.212438330519944,50.91148567573691 34.20045910985209,51.071982005247264 35.188479889242444,50.891423624707386 36.040221940435,50.32968531253573 36.70458074042108,49.58738563770021 37.658531837689225,49.08583011527662 37.692601519753225,48.142902047155076 37.33486985828495,47.24009406850382 37.55632279161364,46.31721913086949 38.237716432486195,45.5949659642647 37.64149699668633,44.71220825970522 36.90899883257225,44.010011619189754 36.2276051917579,43.28774943330791 36.0913264635019,42.244476846724865 36.44905812502839,41.281450768670766 36.840859468560666,40.398672453986364 37.13045176595915,39.3754468565603 37.38597438135184,38.43246922921389 37.40300922235474,37.4092327417311 38.03329834021861,36.7070083435392 38.2036467504804,35.743953399709426 38.66358745802427,35.081850213508005 39.68567791947862,34.94140377800795 40.741838062996976,34.54012765978405 41.84910272958223,34.62038295317325 42.03648598084692,35.422933969442965 42.51346152945189,36.385990586772095 42.56456605257699,37.449359769554576 43.14375064737396,38.2920253409975 43.484447467839345,39.27513031651324 43.73997008323204,40.21810364269186 43.791074606298935,41.12094593427901 42.973402237170376,41.762964435183676 42.07055566285271,42.30466580994835 41.35509233985795,42.96674311105744 40.656663857924286,43.628818039622274 39.975270216935314,44.35107889219944 39.17463268880965,44.91283538105199 38.57841325295158,45.73540430110006 39.08945848373696,46.47771945112618 40.043409581063315,46.0764683890593 41.014395519392565,45.85577993342304 41.83206788857933,45.314088970262674 42.88822803203948,45.133524963021046 43.92735333449673,44.6720828092657 44.74502570356708,44.11032558839361 45.375314821489155,44.65202008081542 45.64787227794295,45.5949659642647 46.10781298548682,46.557969559013145 46.652927898277994,47.32034384524741 47.266182175138965,48.10277734178817 47.98164549807552,48.905269793831394 48.7141436621896,49.647572208952624 49.41257214412326,50.32968531253573 50.12803546717623,50.991733857939835 50.860533631173894,51.65378003125079 51.79744988749735,52.13526666737744 52.666226779692806,52.656875774104265 53.50093398988247,53.25873060601589 54.31860635901103,53.92076865698618 55.0851742051309,54.58280433608161 55.902846574259456,55.14452971884748 56.82272798952181,55.80656101356726 57.418947425321676,56.36828267635428 57.70853972272016,56.80963421352499 57.418947425321676,56.247913892322686 57.50412163051078,56.689265717053786 58.40696820477024,56.99018681127927 59.05429216357879,57.65221149379795 59.769755486689974,58.35435629262065 60.63853237888543,58.815764279293944 61.45620474801399,59.39753792466945 62.171668070950545,60.05955398299557 62.938235917070415,60.741628653529915 63.65369924012339,61.36351807088067 64.36916256305994,61.9854053954914 64.89724263479002,62.76777679911174 65.2890439783805,63.65044825257792 65.10166072711581,64.55317606040626 65.3912530245143,65.43583898668294 65.61270595784299,66.35861844774627 65.68084532191278,67.40175489921239 66.10671634750906,68.20416354786721 65.93636793730548,69.06674895982724 66.39630864490755,69.86915037989093 66.07264666550327,70.83202748579788 65.69788016291568,71.53412221312465 65.4423575475812,72.99848263377498 64.91427747590933,73.37961563501449 64.06253542460036,73.37961563501449 63.05747980426531,73.82092654936423 62.15463322994765,73.58021163579542 61.40510022494709,73.74068827970768 60.55335817381274,73.74068827970768 59.70161612256197,73.86104567113216 59.27574509696569,74.84396143472986 59.088361845701,75.92716867109993 59.037257322634105,76.97025112145639 59.20760573283769,78.0333867927111 59.224640573898796,79.07645735780534 59.92306905583246,79.53781361492292 60.80888078908902,79.39740096287278 61.882075773668475,79.2971061461285 62.83602687093662,79.3372240793833 63.82404765026877,79.43751887432882 64.86317295278423,79.53781361492292 65.83415889117168,79.63810830099101 65.97043761931127,80.66111099132104 66.02154214237817,81.70416672894498 66.10671634750906,82.72715798552963 66.24299507570686,83.71002660556405 66.10671634750906,84.77312351560977 66.07264666550327,85.8161560518347 66.24299507570686,86.79900824869401 66.31113443983486,87.88214543371578 66.36223896290176,88.86498664690589 66.36223896290176,89.92805391368165 66.39630864490755,90.95099966345879 66.02154214237817,91.6329603522172 66.44741316797445,92.71606921702914 66.32816928089596,93.65876991623372 66.27706475771265,94.64158042091003 66.31113443983486,95.64444289761013 66.48148285003845,96.66735702002188 66.53258737310534,97.73037942536757 66.66886610136135,98.75328200770309 66.68590094230603,99.69595192599809 66.46444800903555,100.65867369066109 66.71997062437003,101.3606551507255 66.66886610136135,102.3634811850934 66.65183126030024,103.16573809676629 66.89031903463183,104.06827296188567 66.92438871669583,105.19142130878754 66.85624935262604,106.2744507540774 66.95845839875983,107.19702638957824 66.87328419362893,108.28004408870765 66.95845839875983,109.26277688234404 67.94647917803377,109.2026097184862 69.12188320874702,109.90455874489271 69.5818239164073,110.82711627036042 69.5818239164073,111.95022356789559 70.97868088033283,112.05050067343109 71.94966681872029,112.33127627987415 73.00582696218044,112.63210681366036 73.97681290050969,112.59199610409269 74.64117170055397,112.7323835495481 75.6973318438977,112.89282621380698 76.73645714635495,113.11343464990205 77.80965213093441,113.31398754524707 78.55918513599318,113.13348994926491 79.51313623326132,113.65492696828733 80.58633121778257,113.81536883223453 82.52830309449928,115.21922920436191 83.55039355595363,115.31950453743048 84.57248401740799,115.29944947519107 85.59457447880413,114.85823755503225 86.22486359672621,115.5 87.21288437605835,115.27939441071067 87.36619794531725,114.1763625171734 86.95736176072387,113.19365583412582 86.87218755565118,112.21094392931263 87.72392960678553,111.76972464077699 88.7119503862341,111.76972464077699 88.03055674524512,112.51177465883666 88.21793999650981,113.45437444261916" stroke="#ff0500" stroke-linecap="round" stroke-linejoin="round" stroke-width="0.5"><title>2015-12-06 21.3km</title><desc>157710282</desc></polyline><polyline fill="none" points="150.49593555554748,59.90252663753927 144.79644683003426,46.003049017395824 133.8045757189393,39.77223451528698 123.2198109421879,46.48234207648784 122.40559826605022,61.81969253439456 125.25534262880683,77.63627944840118 133.39746938087046,89.13921619672328 139.09695810638368,102.07998425560072 151.71725456789136,109.26928347116336 165.5588700454682,104.47641862789169 168.00150807015598,91.05636941175908 161.48780667036772,77.63627944840118 154.97410527057946,62.77827517129481 151.71725456789136,46.961635084822774 139.91117077879608,38.813646890223026 129.32640600576997,49.35809934185818 129.32640600576997,63.25756641058251 131.36193769425154,78.59485865291208 135.43300106748939,92.97352179372683 143.57512781955302,105.91427862504497 157.82384963333607,108.78999722050503 168.81572074629366,98.24568655900657 168.40861440822482,83.86704056942835 160.67359399609268,71.88479984598234 154.97410527057946,57.026776233688 145.20355316996574,44.565169527195394 133.39746938087046,38.33435299899429 122.40559826605022,49.35809934185818 119.9629602432251,63.736857598181814 124.44112995453179,77.63627944840118 128.10508699156344,90.57708118623123 135.43300106748939,103.99713185662404 149.2746165432036,111.1864279541187 163.93044469691813,107.83142456412315 171.66546510905027,95.36996110342443 168.00150807015598,81.94988423772156 161.48780667036772,68.52976662199944 155.7883179448545,54.15102395787835 147.6461911946535,41.689409144222736 132.58325670473278,39.292940728832036 121.18427925370634,50.795977272093296 122.40559826605022,65.65402183262631 126.88376797921956,80.51201644167304 130.54772501811385,94.89067334588617 135.84010740555823,107.35213815839961 150.90304189547896,110.22785581694916 163.93044469691813,105.43499201117083 172.07257144711912,93.45280975988135 169.62993342243135,80.0327270720154 161.08070033229887,67.57118523307145 154.97410527057946,54.15102395787835 146.42487218044698,43.12728956947103 132.58325670473278,41.689409144222736 121.99849192984402,50.31668468238786 119.14874756708741,63.736857598181814 125.25534262880683,77.63627944840118 129.73351234197617,92.49423377634957 135.43300106748939,106.87285169912502 148.46040386892855,110.70714191161096 161.89491300843656,106.87285169912502 169.62993342243135,92.97352179372683 164.74465737119317,80.51201644167304 159.859381319955,64.2161487354897 155.38121160678566,49.83739203820005 145.61065950617194,38.33435299899429 130.54772501811385,40.73082193499431 121.59138559177518,52.71314711915329 123.2198109421879,68.0504759545438 128.10508699156344,81.47059502406046 132.99036304280162,96.32853646203876 142.76091514341533,108.78999722050503 156.1954242810607,114.54142879787832 166.37308271974325,102.55927123315632 171.25835877098143,89.13921619672328 164.33755103126168,75.23983052326366 157.00963695719838,61.81969253439456 151.71725456789136,46.961635084822774 141.13248979486525,37.37576506100595 127.69798065535724,43.12728956947103 118.33453489094973,52.71314711915329 119.9629602432251,68.0504759545438 124.84823629073799,82.42917339876294 132.58325670473278,96.80782406590879 143.57512781955302,105.43499201117083 157.41674329340458,109.74856966966763 169.62993342243135,102.07998425560072 173.293890459463,87.22206215094775 165.5588700454682,75.7191204125993 158.6380623076111,61.81969253439456 153.34567992016673,47.920220942702144 142.3538088053465,38.813646890223026 128.10508699156344,39.292940728832036 121.18427925370634,51.75456229969859 120.37006657756865,67.09189446037635 124.44112995453179,81.94988423772156 129.73351234197617,96.32853646203876 138.28274543210864,107.83142456412315 151.71725456789136,112.62428577058017 164.33755103126168,109.26928347116336 171.66546510905027,95.84924880834296 167.18729539588094,81.47059502406046 162.30201934464276,67.09189446037635 155.38121160678566,54.63031613314524 151.31014823168516,41.210115565452725 137.46853275597095,34.5 125.66244896873832,40.73082193499431 122.81270460411906,53.1924394518137 126.88376797921956,69.96763831563294 129.73351234197617,85.30490727443248 130.95483135432005,98.72497395286337 141.9467024691403,109.26928347116336 156.1954242810607,111.1864279541187 168.40861440822482,105.43499201117083 170.4441460967064,92.49423377634957 166.7801890578121,78.11556907650083 160.67359399609268,66.13331276038662 154.97410527057946,52.233854736201465 147.6461911946535,40.73082193499431 132.99036304280162,35.45858856057748 122.81270460411906,45.523755905684084 119.14874756708741,60.86110968980938 122.81270460411906,75.7191204125993 127.69798065535724,90.57708118623123 133.8045757189393,104.9557053456083 143.98223415575922,113.10357160586864 157.41674329340458,109.74856966966763 167.59440173394978,99.20426129410043 171.66546510905027,85.30490727443248 164.33755103126168,71.4055095417425 158.2309559714049,57.026776233688 152.12436090782285,43.60658294148743 140.31827711872756,34.5 126.06955530308187,36.896471014246345 119.14874756708741,48.878806594759226 120.37006657756865,63.25756641058251 126.06955530308187,79.07414817856625 130.140618680045,91.5356575846672 135.0258947312832,105.91427862504497 148.46040386892855,113.58285738853738 162.30201934464276,112.14499988313764 171.66546510905027,99.68354858458042 168.81572074629366,85.30490727443248 158.6380623076111,73.80196054419503 152.9385735820979,59.42323503410444 146.83197851851583,45.04446274321526 132.17615036666393,42.64799614716321 121.18427925370634,51.27526981243864 122.40559826605022,66.13331276038662 127.2908743172884,79.07414817856625 132.17615036666393,93.45280975988135 139.91117077879608,105.91427862504497 153.75278625637293,108.78999722050503 166.37308271974325,101.121410143096 166.37308271974325,87.70135074108839 160.67359399609268,72.36409009899944 159.859381319955,57.026776233688 152.12436090782285,44.565169527195394 138.28274543210864,40.73082193499431 126.06955530308187,47.920220942702144 122.40559826605022,62.77827517129481 128.91929966770113,75.7191204125993 134.2116820551455,90.09779290854931 139.91117077879608,104.47641862789169 154.15989259444177,110.22785581694916 166.7801890578121,103.5178450345993 168.00150807015598,90.09779290854931 163.11623202078044,77.15698976628482 158.2309559714049,61.81969253439456 152.12436090782285,48.39951379504055 142.3538088053465,37.855059056542814 130.140618680045,40.25152825145051 121.59138559177518,52.233854736201465 121.18427925370634,68.0504759545438 126.47666164301336,81.94988423772156 132.99036304280162,94.41138553572819 141.13248979486525,107.35213815839961 156.1954242810607,111.1864279541187 166.7801890578121,99.68354858458042 166.37308271974325,83.86704056942835 163.11623202078044,69.96763831563294 156.60253061912954,57.506068096961826 153.75278625637293,42.64799614716321 140.31827711872756,34.5 128.51219332963228,43.60658294148743 122.40559826605022,56.54748431779444 122.40559826605022,70.44692877540365 128.10508699156344,84.82561842445284 134.61878839321434,97.76639911206439 143.57512781955302,110.22785581694916 157.41674329340458,111.1864279541187 168.40861440822482,100.64212300954387 170.0370397567749,87.70135074108839 163.52333835698664,76.19841024884954 160.26648765802383,62.77827517129481 152.53146724402905,51.75456229969859 144.79644683003426,39.77223451528698 129.73351234197617,38.813646890223026 119.55585390515625,48.39951379504055 120.77717291750014,62.298983877990395 125.66244896873832,74.76054058270529 131.7690440285951,88.65992776397616 136.24721374176443,103.03855815948918 148.0532975308597,112.14499988313764 163.11623202078044,108.78999722050503 171.25835877098143,94.89067334588617 170.4441460967064,80.51201644167304 162.30201934464276,69.4883478032425 156.1954242810607,55.5889003300108 153.75278625637293,42.168702671304345 140.31827711872756,38.33435299899429 128.10508699156344,42.64799614716321 118.74164122901857,52.71314711915329 120.77717291750014,67.09189446037635 125.66244896873832,80.99130575871095 132.58325670473278,93.45280975988135 138.28274543210864,106.39356518816203 152.12436090782285,112.14499988313764 165.5588700454682,103.5178450345993 172.47967778332531,91.05636941175908 168.40861440822482,78.11556907650083 163.52333835698664,65.65402183262631 157.82384963333607,51.27526981243864 148.0532975308597,40.25152825145051 132.99036304280162,36.417176914867014 121.18427925370634,44.565169527195394 117.92742855288088,59.42323503410444 121.59138559177518,73.80196054419503 128.51219332963228,86.74277351005003 135.0258947312832,100.162835823372 145.61065950617194,110.22785581694916 160.67359399609268,107.83142456412315 170.0370397567749,99.20426129410043 170.8512524329126,84.82561842445284 165.15176370739937,70.92621918488294 159.4522749837488,56.54748431779444 154.15989259444177,42.64799614716321 141.13248979486525,35.45858856057748 128.91929966770113,40.25152825145051 119.55585390515625,51.75456229969859 119.55585390515625,64.2161487354897 124.03402361646295,78.11556907650083 132.58325670473278,89.618504577782 136.65432007983327,103.99713185662404 147.23908485658467,113.10357160586864 161.08070033229887,109.26928347116336 170.4441460967064,97.28711161483079 166.37308271974325,84.34632952325046 163.11623202078044,67.57118523307145 158.2309559714049,54.15102395787835 150.90304189547896,40.73082193499431 137.0614264179021,35.93788276426494 124.44112995453179,41.210115565452725 116.70610954239964,52.71314711915329 122.40559826605022,66.61260363645852 124.84823629073799,80.51201644167304 128.51219332963228,94.41138553572819 137.0614264179021,106.39356518816203 150.49593555554748,107.83142456412315 165.15176370739937,106.87285169912502 168.40861440822482,92.97352179372683 165.5588700454682,79.07414817856625 161.89491300843656,64.69543981971219 154.97410527057946,51.75456229969859 148.8675102069974,37.855059056542814 134.61878839321434,38.813646890223026 123.62691728025675,48.39951379504055 117.92742855288088,62.298983877990395 122.81270460411906,75.23983052326366 128.10508699156344,87.70135074108839 133.39746938087046,100.162835823372 142.76091514341533,110.22785581694916 156.60253061912954,114.06214311858639 167.18729539588094,104.47641862789169 173.293890459463,90.57708118623123 168.40861440822482,75.23983052326366 161.08070033229887,62.77827517129481 156.60253061912954,48.878806594759226 146.01776584424078,37.855059056542814 132.17615036666393,40.73082193499431 119.55585390515625,48.878806594759226 118.74164122901857,63.736857598181814 124.03402361646295,78.59485865291208 130.54772501811385,92.97352179372683 137.0614264179021,105.91427862504497 151.71725456789136,110.22785581694916 164.33755103126168,103.5178450345993 170.4441460967064,88.65992776397616 166.7801890578121,75.23983052326366 160.67359399609268,60.381818189285696 153.34567992016673,53.1924394518137" stroke="#4dd2ff" stroke-linecap="round" stroke-linejoin="round" stroke-width="0.5"><title>2015-11-14 10.0km</title><desc>150128300</desc></polyline><polyline fill="none" points="64.68157166987658,201.96120187221095 44.90644655562937,189.83537447126582 29.251139177009463,208.26661912770942 38.72671995870769,229.60796542093158 49.43824606016278,252.88931796932593 72.09724358655512,254.82942521153018 76.21706131845713,232.03311196621507 64.68157166987658,209.72171415621415 51.0861731544137,188.3802729747258 30.075102722272277,202.4462342839688 36.25482931919396,226.6977878329344 46.14239187538624,251.4342369856313 68.38940762728453,257.7395844962448 77.45300663821399,238.33848682790995 67.15346230752766,213.6019652490504 55.61797265894711,190.80544187361374 32.54699336178601,195.1707425774075 32.958975134417415,221.3624573335983 42.84653769060969,245.61390831600875 60.97373571060598,261.1347679356113 77.45300663821399,243.67379707610235 70.03733472153544,219.9073660946451 60.97373571060598,195.1707425774075 37.90275641158223,189.35034069186077 29.663120947778225,214.08699639840052 39.962665278464556,238.82351529598236 54.7940091136843,259.679689635057 77.45300663821399,250.46418273169547 74.1571524515748,225.7277282155119 64.68157166987658,201.96120187221095 48.61428251489997,186.9251710032113 28.83915740251541,200.02107169711962 33.78293867968023,226.21275804983452 43.67050123587251,250.94920988520607 65.9175169877708,260.64974188804626 78.27697018533945,241.73368499521166 71.27328004129231,220.3923965599388 62.62166280299425,197.11087485589087 41.198610596358776,188.3802729747258 28.015193855389953,210.6917772446759 37.490774638950825,235.4283149195835 49.43824606016278,258.7096371720545 77.04102486558259,254.82942521153018 77.04102486558259,230.0929948356934 65.9175169877708,205.35642765183002 50.67419138178229,187.4102050466463 28.427175629884005,199.0510062938556 31.311048042029142,221.84748764242977 40.37464705109596,245.61390831600875 58.913826843723655,262.58984576445073 79.10093373060226,249.9791555274278 73.74517068080604,225.24269832717255 63.85760812275112,201.96120187221095 45.730410100892186,186.9251710032113 25.955284990370274,203.90133120585233 32.958975134417415,227.1828175620176 44.08248301036656,249.49412827007473 63.0336445774883,263.07487160153687 80.33687905035913,248.52407359704375 74.1571524515748,224.27263839403167 64.68157166987658,199.53603902179748 46.14239187538624,186.44013690808788 26.36726676300168,198.56597351282835 30.487084494903684,222.81754810130224 40.786628825590014,247.06899119215086 60.14977216348052,263.07487160153687 79.92489727586508,252.40429102629423 73.74517068080604,224.75766838667914 65.50553521700203,200.5061043202877 45.318428330123425,186.9251710032113 25.955284990370274,201.96120187221095 32.958975134417415,227.1828175620176 41.61059237085283,251.91926403250545 63.0336445774883,265.5 81.16084259748459,249.00910095963627 74.1571524515748,223.7876083496958 64.26958989724517,200.02107169711962 44.90644655562937,186.9251710032113 25.543303217738867,203.41629895055667 32.135011587291956,225.7277282155119 41.61059237085283,248.03904618276283 63.445626348257065,261.61979393148795 81.572824370116,245.1288805855438 73.33318890631199,220.3923965599388 61.385717483237386,198.080940681044 39.962665278464556,192.26054258132353 31.723029812797904,215.05705854063854 41.198610596358776,239.30854371003807 55.61797265894711,258.7096371720545 77.04102486558259,247.06899119215086 71.68526181392372,223.30257825227454 62.62166280299425,199.0510062938556 40.37464705109596,191.29047549609095 31.723029812797904,214.57202749466524 41.198610596358776,237.85345830814913 55.2059908863157,258.22461085999385 77.45300663821399,249.00910095963627 72.92120713368058,226.6977878329344 64.26958989724517,202.93126664450392 44.08248301036656,189.35034069186077 28.427175629884005,208.75165085680783 39.1387017313391,236.88340111030266 50.26220960728824,258.7096371720545 73.33318890631199,256.7695316108875 76.21706131845713,233.00317021645606 66.74148053489625,209.72171415621415 53.146082021296024,189.35034069186077 30.89906626753509,197.5959077947773 31.311048042029142,221.3624573335983 41.198610596358776,244.15882496442646 59.32580861821771,260.1647157869302 79.10093373060226,246.58396362001076 71.27328004129231,221.84748764242977 62.62166280299425,198.080940681044 41.61059237085283,188.3802729747258 27.603212082758546,208.75165085680783 35.84284754656255,232.5181411174126 47.790318969637156,255.31445189053193 70.03733472153544,258.7096371720545 79.51291550509632,238.82351529598236 69.21337117627263,213.6019652490504 58.08986329846084,190.80544187361374 33.37095690704882,193.2306094574742 30.89906626753509,218.4522743797861 39.962665278464556,241.73368499521166 53.97004556655884,260.64974188804626 76.21706131845713,256.28450509067625 79.10093373060226,232.03311196621507 68.38940762728453,208.75165085680783 55.2059908863157,187.89523903653026 30.89906626753509,193.2306094574742 28.83915740251541,216.5121513591148 39.55068350583315,239.79357207240537 53.97004556655884,260.64974188804626 78.27697018533945,253.85937169427052 80.33687905035913,229.60796542093158 69.62535294704139,207.78158734738827 55.61797265894711,188.86530685937032 31.311048042029142,194.20067612314597 30.075102722272277,216.9971821932122 38.72671995870769,240.7636286378838 52.322118474170566,262.1048198742792 76.21706131845713,256.7695316108875 81.16084259748459,233.97322825482115 70.86129826679826,210.20674572698772 57.67788152396679,188.3802729747258 33.37095690704882,192.26054258132353 28.427175629884005,216.5121513591148 39.962665278464556,239.79357207240537 53.146082021296024,261.1347679356113 76.21706131845713,256.28450509067625 80.74886082299054,232.5181411174126 70.44931649416685,210.20674572698772 56.853917978703976,188.86530685937032 32.54699336178601,192.74557604501024 29.663120947778225,217.9672437030822 38.72671995870769,240.27860038168728 53.55806379392743,261.1347679356113 75.80507954582572,257.25455807941034 80.33687905035913,233.00317021645606 70.44931649416685,211.66184012312442 58.913826843723655,189.35034069186077 35.01888400129974,191.29047549609095 26.779248535633087,214.57202749466524 37.490774638950825,235.91334370244294 50.26220960728824,258.22461085999385 73.74517068080604,259.1946634291671 81.98480614461005,237.36842973530293 72.92120713368058,214.57202749466524 60.14977216348052,194.68570937775075 37.07879286631942,195.1707425774075 31.311048042029142,216.9971821932122 42.022574143484235,239.79357207240537 57.26589975319803,259.1946634291671 79.10093373060226,247.06899119215086 72.50922536104918,224.27263839403167 62.62166280299425,200.02107169711962 44.08248301036656,189.83537447126582 28.83915740251541,208.26661912770942 38.72671995870769,231.0630535054952 49.43824606016278,254.34439847897738 72.09724358655512,256.7695316108875 78.68895195797086,233.48819926241413 66.74148053489625,207.29655551398173 51.49815492890775,189.35034069186077 31.723029812797904,200.02107169711962 37.07879286631942,223.30257825227454 45.318428330123425,246.09893599478528 62.62166280299425,261.61979393148795 81.572824370116,249.00910095963627 76.62904309108853,225.7277282155119 65.9175169877708,203.41629895055667 50.67419138178229,187.89523903653026 32.135011587291956,201.96120187221095 37.490774638950825,224.75766838667914 45.730410100892186,248.03904618276283 63.445626348257065,261.61979393148795 81.572824370116,249.00910095963627 74.1571524515748,225.7277282155119 63.85760812275112,201.47616940643638 46.55437364988029,187.89523903653026 27.603212082758546,202.93126664450392 35.01888400129974,226.21275804983452 44.90644655562937,249.9791555274278 64.68157166987658,262.58984576445073 81.98480614461005,245.61390831600875 73.74517068080604,223.30257825227454 64.26958989724517,201.47616940643638 44.08248301036656,189.83537447126582 26.779248535633087,206.8115236274898 35.84284754656255,229.60796542093158 45.318428330123425,252.40429102629423 67.15346230752766,263.07487160153687 82.80876968987286,244.15882496442646 72.92120713368058,222.33251789864153 62.209681030362844,199.53603902179748 40.786628825590014,189.35034069186077 26.36726676300168,210.20674572698772 37.490774638950825,232.03311196621507 45.318428330123425,255.31445189053193 67.56544408202171,262.58984576445073 81.572824370116,245.1288805855438 73.33318890631199,219.9073660946451 63.0336445774883,198.56597351282835 40.786628825590014,190.80544187361374 25.543303217738867,208.26661912770942 35.4308657720685,231.54808276239783 42.43455591797829,254.82942521153018 65.9175169877708,263.5598973860033 83.22075146436691,248.52407359704375 78.27697018533945,226.6977878329344 67.97742585651577,204.8713955557905 51.910136699676514,190.80544187361374 29.251139177009463,199.53603902179748 32.958975134417415,222.81754810130224 40.786628825590014,245.1288805855438 57.26589975319803,263.5598973860033 79.51291550509632,257.25455807941034 81.98480614461005,234.45825719600543 71.68526181392372,213.6019652490504 59.73779038898647,190.32040819805115 35.84284754656255,192.26054258132353 26.36726676300168,214.08699639840052 39.962665278464556,241.73368499521166 55.61797265894711,261.61979393148795 77.45300663821399,259.679689635057 84.45669678226113,236.88340111030266 74.56913422606885,215.54208953259513 57.67788152396679,193.2306094574742 35.4308657720685,196.62584186531603 28.015193855389953,217.48221297422424 41.198610596358776,238.82351529598236 53.97004556655884,260.64974188804626 77.8649884108454,259.679689635057 82.39678791537881,236.39837243314832 73.74517068080604,214.08699639840052 60.14977216348052,194.20067612314597 38.72671995870769,194.68570937775075 32.958975134417415,216.9971821932122 42.84653769060969,239.79357207240537 58.913826843723655,260.1647157869302 79.51291550509632,252.88931796932593 76.62904309108853,231.0630535054952 66.32949876226485,209.2366825332865 51.910136699676514,191.7755090650171 32.54699336178601,203.41629895055667 36.25482931919396,227.1828175620176 46.55437364988029,249.49412827007473 67.15346230752766,261.61979393148795 81.98480614461005,244.64385280106217 72.50922536104918,220.8774269730784 62.209681030362844,199.0510062938556 40.37464705109596,194.20067612314597 29.663120947778225,213.6019652490504 38.31473818607628,236.39837243314832 50.67419138178229,257.7395844962448 73.74517068080604,258.7096371720545 79.51291550509632,236.39837243314832 70.44931649416685,214.08699639840052 57.67788152396679,193.2306094574742 34.194920452311635,198.56597351282835 32.135011587291956,220.8774269730784 42.84653769060969,242.70374114019796 58.50184507295489,262.58984576445073 79.10093373060226,254.82942521153018 78.68895195797086,232.03311196621507 68.80138940177858,210.6917772446759 56.44193620607257,189.83537447126582 34.194920452311635,196.62584186531603 32.958975134417415,219.42233557486907 44.49446478486061,242.21871309448034 55.61797265894711,261.61979393148795 78.27697018533945,254.82942521153018 78.27697018533945,231.0630535054952 68.38940762728453,207.78158734738827 53.55806379392743,189.83537447126582 31.311048042029142,198.56597351282835 33.78293867968023,221.84748764242977 43.258519465103745,246.09893599478528 60.14977216348052,263.07487160153687 81.16084259748459,251.4342369856313 77.45300663821399,228.1528768632561 68.38940762728453,205.8414596975781 53.97004556655884,187.4102050466463 31.723029812797904,195.65577572630718 30.89906626753509,219.42233557486907 40.786628825590014,242.21871309448034 54.7940091136843,262.1048198742792 77.04102486558259,256.7695316108875 81.572824370116,232.5181411174126 72.50922536104918,210.6917772446759 60.97373571060598,188.86530685937032 36.66681109368801,192.26054258132353 27.603212082758546,214.08699639840052 39.1387017313391,236.39837243314832 48.61428251489997,258.22461085999385 71.27328004129231,261.1347679356113 81.98480614461005,242.21871309448034 74.98111599870026,219.42233557486907 65.09355344250798,195.65577572630718 44.49446478486061,186.44013690808788 28.427175629884005,201.96120187221095 34.194920452311635,226.21275804983452 43.258519465103745,249.49412827007473 60.14977216348052,263.07487160153687 81.16084259748459,252.88931796932593 81.16084259748459,231.0630535054952 72.09724358655512,209.72171415621415 59.32580861821771,188.86530685937032 37.490774638950825,190.80544187361374 28.015193855389953,210.6917772446759 37.07879286631942,232.5181411174126 45.318428330123425,254.82942521153018 65.09355344250798,263.5598973860033 81.16084259748459,248.03904618276283 77.8649884108454,223.7876083496958 68.38940762728453,201.96120187221095 51.910136699676514,185.95510275941342 31.311048042029142,195.65577572630718 30.487084494903684,218.93730500433594 39.962665278464556,240.7636286378838 51.49815492890775,262.1048198742792 75.39309777319431,260.64974188804626 82.80876968987286,237.85345830814913 72.09724358655512,214.57202749466524 60.56175393797457,193.2306094574742 37.90275641158223,190.80544187361374 31.311048042029142,214.08699639840052 40.786628825590014,235.91334370244294 53.146082021296024,256.7695316108875 76.21706131845713,251.4342369856313 77.04102486558259,227.66784723848104 65.9175169877708,205.35642765183002 49.850227834656835,187.89523903653026 31.311048042029142,202.93126664450392 36.66681109368801,225.7277282155119 46.55437364988029,249.00910095963627 66.32949876226485,258.22461085999385 81.16084259748459,240.27860038168728 72.50922536104918,216.9971821932122 60.14977216348052,195.1707425774075 38.72671995870769,190.80544187361374 29.663120947778225,211.17680870974436 39.55068350583315,232.5181411174126 47.378337195143104,253.85937169427052 73.74517068080604,254.82942521153018 79.51291550509632,234.45825719600543 71.27328004129231,212.14687148295343 63.0336445774883,187.4102050466463 49.850227834656835,194.68570937775075 34.60690222680569,205.8414596975781" stroke="#ff0000" stroke-linecap="round" stroke-linejoin="round" stroke-width="0.5"><title>2015-10-29 21.5km</title><desc>143604666</desc></polyline></svg>