<?xml version="1.0" encoding="utf-8" ?>
<svg baseProfile="full" height="200mm" version="1.1" viewBox="0,0,200,200" width="200mm" xmlns="http://www.w3.org/2000/svg" xmlns:ev="http://www.w3.org/2001/xml-events" xmlns:xlink="http://www.w3.org/1999/xlink"><defs /><rect fill="#1a1a1a" height="200" width="200" x="0" y="0" /><text alignment-baseline="middle" fill="#e1ed5e" style="dominant-baseline: central; font-size:9.0px; font-family:Arial;" text-anchor="middle" x="100.0" y="100.0">2015</text><line stroke="#e1ed5e" stroke-width="0.3" x1="100.0" x2="100.0" y1="15.0" y2="10.0" /><path d="M 100.0 14.0 a86.0,86.0 0 0,1 42.46469731375804,11.215312516191453" fill="none" id="id1" stroke="none" /><text fill="#e1ed5e" style="font-size:6.75px; font-family:Arial;" text-anchor="middle"><textPath startOffset="22.20632615414155" xlink:href="#id1">January</textPath></text><line stroke="#e1ed5e" stroke-width="0.3" x1="143.23703022742887" x2="145.7803849466894" y1="26.81831364943548" y2="22.513508569990506" /><path d="M 143.74570117128098 25.957352633546492 a86.0,86.0 0 0,1 28.547481713284135,27.462654790039103" fill="none" id="id2" stroke="none" /><text fill="#e1ed5e" style="font-size:6.75px; font-family:Arial;" text-anchor="middle"><textPath startOffset="19.985693538727396" xlink:href="#id2">February</textPath></text><line stroke="#e1ed5e" stroke-width="0.3" x1="172.23445277983987" x2="176.4835382374775" y1="55.19839476539836" y2="52.563006222186495" /><path d="M 173.08426987136738 54.67131705675599 a86.0,86.0 0 0,1 12.851231095245387,41.99856678651699" fill="none" id="id3" stroke="none" /><text fill="#e1ed5e" style="font-size:6.75px; font-family:Arial;" text-anchor="middle"><textPath startOffset="22.20632615414155" xlink:href="#id3">March</textPath></text><line stroke="#e1ed5e" stroke-width="0.3" x1="184.98032266829074" x2="189.97916517819016" y1="98.17113171792111" y2="98.06355123074" /><path d="M 185.9800911702706 98.14961562048488 a86.0,86.0 0 0,1 -9.607161424134198,41.387399972396054" fill="none" id="id4" stroke="none" /><text fill="#e1ed5e" style="font-size:6.75px; font-family:Arial;" text-anchor="middle"><textPath startOffset="21.466115282336823" xlink:href="#id4">April</textPath></text><line stroke="#e1ed5e" stroke-width="0.3" x1="174.80103733775053" x2="179.2010983576182" y1="140.37084112569926" y2="142.7455964860345" /><path d="M 175.68104954172406 140.8457921977663 a86.0,86.0 0 0,1 -30.038265399797805,32.042727171017184" fill="none" id="id5" stroke="none" /><text fill="#e1ed5e" style="font-size:6.75px; font-family:Arial;" text-anchor="middle"><textPath startOffset="22.206326154141568" xlink:href="#id5">May</textPath></text><line stroke="#e1ed5e" stroke-width="0.3" x1="143.8653032363475" x2="146.44561519142675" y1="172.8068346515853" y2="177.08958963109032" /><path d="M 144.38136562736335 173.6633856474863 a86.0,86.0 0 0,1 -40.68145358897372,12.25698825130547" fill="none" id="id6" stroke="none" /><text fill="#e1ed5e" style="font-size:6.75px; font-family:Arial;" text-anchor="middle"><textPath startOffset="21.466115282336833" xlink:href="#id6">June</textPath></text><path d="M 108.2653958097858 119.30500536409082 l 2.969830010950973 6.936459621687762 a28.54548622537009,28.54548622537009 0 0,0 -0.45336830279442925,0.1895079873373295 l -2.8499902486590827 -6.986552652045064" fill="#ff4406" stroke="none" /><path d="M 107.93186726928326 119.44442032107085 l 3.8559509614744205 9.452595295271616 a31.20881558426278,31.20881558426278 0 0,0 -0.49916111411666747,0.19862650881837024 l -3.6926687713158866 -9.517568648496056" fill="#ff6a09" stroke="none" /><path d="M 107.59598834532513 119.57807347666477 l 3.6922575629646577 9.516508790720005 a31.207678750583838,31.207678750583838 0 0,0 -0.5024878822151989,0.18999792087486927 l -3.5278994599891838 -9.578654961701504" fill="#ff6a09" stroke="none" /><path d="M 107.2578585660854 119.70592522655815 l 3.5716471438591033 9.697434981913542 a31.334258974337608,31.334258974337608 0 0,0 -0.5077350195775846,0.18205571367379184 l -3.4041925636517836 -9.757478236627295" fill="#ff6c09" stroke="none" /><path d="M 106.91757812671514 119.82793768551818 l 3.3774715174102896 9.680887379240072 a31.25314070421583,31.25314070421583 0 0,0 -0.5094712382773632,0.17284030530668182 l -3.2103305461956992 -9.737590671444877" fill="#ff6a09" stroke="none" /><path d="M 106.57524785965236 119.94407469862006 l 3.201918257329266 9.712074474775239 a31.226273570084032,31.226273570084032 0 0,0 -0.5119304505967072,0.1639039640502669 l -3.0342664616416184 -9.765751285485212" fill="#ff6a09" stroke="none" /><path d="M 106.2309692047433 120.05430185196036 l 3.013803059384005 9.699890063529585 a31.157306538906482,31.157306538906482 0 0,0 -0.5135392153405762,0.15472515295569644 l -2.846388869603183 -9.750330585591009" fill="#ff6909" stroke="none" /><path d="M 105.88484417918355 120.15858648285463 l 2.813419874603764 9.637394997712658 a31.039657052546787,31.039657052546787 0 0,0 -0.5141775829191946,0.14531172091402011 l -2.647111123579964 -9.684395511965198" fill="#ff6709" stroke="none" /><path d="M 105.53697534728816 120.25689768951611 l 2.7209729521392405 9.95461732269055 a31.319791657174292,31.319791657174292 0 0,0 -0.5212650720635783,0.13767084323650602 l -2.549217437264165 -9.99997951523064" fill="#ff6b09" stroke="none" /><path d="M 104.48393922423573 120.51570834832081 l 1.010718201827516 4.6244159017491775 a25.73357937673555,25.73357937673555 0 0,0 -0.43356000530828104,0.09085671453732204 l -0.930966735089857 -4.64112859701304" fill="#ff1b02" stroke="none" /><path d="M 104.13013068566511 120.58985236759428 l 2.9592139598372955 14.752506202442836 a36.04637453053759,36.04637453053759 0 0,0 -0.6094109683627867,0.11679506249705712 l -2.7048353769028046 -14.801258463288361" fill="#ffac10" stroke="none" /><path d="M 103.7750983002368 120.6578951692458 l 1.8481114271542376 10.113138542867242 a31.28061705513852,31.28061705513852 0 0,0 -0.5305059017703105,0.09223525108543976 l -1.6737565539118773 -10.143452372473687" fill="#ff6b09" stroke="none" /><path d="M 103.41894727170886 120.7198165907248 l 1.6881769173590688 10.230843976395107 a31.36919041071404,31.36919041071404 0 0,0 -0.5335214191591746,0.08332507325050321 l -1.511819634591377 -10.258387356992717" fill="#ff6c0a" stroke="none" /><path d="M 103.06178313531738 120.77559828337769 l 1.5166451706358546 10.291130825073655 a31.402287548053756,31.402287548053756 0 0,0 -0.5354410162994219,0.07420724590944779 l -1.339275563149602 -10.315712636475705" fill="#ff6d0a" stroke="none" /><path d="M 102.70371172650421 120.8252237178851 l 0.7604226335664028 5.85712275052303 a26.906278819725202,26.906278819725202 0 0,0 -0.4598059817206118,0.055676100956164175 l -0.6594892287944107 -5.869344380204545" fill="#ff2c04" stroke="none" /><path d="M 102.34483914955558 120.86867818915974 l 1.1234192215190686 9.998244105503415 a31.06116076506644,31.06116076506644 0 0,0 -0.5318371867957559,0.05512709896244022 l -0.9511494381177101 -10.016100572921614" fill="#ff6809" stroke="none" /><path d="M 101.62511606390274 120.93702456842531 l 0.7948073149822186 10.23982265056416 a31.27062250221261,31.27062250221261 0 0,0 -0.5370167127582006,0.037035816649349185 l -0.6184278414450877 -10.251986811729793" fill="#ff6b09" stroke="none" /><path d="M 101.26447882468166 120.96189622390904 l 0.8020459834121455 13.29591634349515 a34.32008517888414,34.32008517888414 0 0,0 -0.5899981067925179,0.030496162922650897 l -0.5730598082061481 -13.307752313180004" fill="#ff950d" stroke="none" /><path d="M 100.90346689309514 120.98055641714683 l 0.5792271221567397 13.450971372197605 a34.46343696515572,34.46343696515572 0 0,0 -0.5929018279454403,0.020420737766049683 l -0.34760494253664703 -13.458948908389749" fill="#ff970d" stroke="none" /><line stroke="#e1ed5e" stroke-width="0.3" x1="102.19456741930631" x2="102.32365962044197" y1="184.97166512339345" y2="189.96999836594603" /><path d="M 102.22038585953345 185.97133177190398 a86.0,86.0 0 0,1 -42.740103519485714,-10.115201625700543" fill="none" id="id7" stroke="none" /><text fill="#e1ed5e" style="font-size:6.75px; font-family:Arial;" text-anchor="middle"><textPath startOffset="22.20632615414155" xlink:href="#id7">July</textPath></text><path d="M 100.54218724476979 120.99299961872073 l 0.34805526836929584 13.47638511723511 a34.480878988325486,34.480878988325486 0 0,0 -0.5934656949673216,0.010217050139971505 l -0.11602988350930629 -13.48037964465424" fill="#ff970d" stroke="none" /><path d="M 100.18074693466247 120.99922214144158 l 0.1387879844512669 16.124421260574554 a37.125018545511715,37.125018545511715 0 0,0 -0.6390698382274336,0.0 l 0.13878798445125579 -16.124421260574554" fill="#ffbb11" stroke="none" /><path d="M 99.81925306533755 120.99922214144158 l -0.11517540515200028 13.381106144534098 a34.381601810890956,34.381601810890956 0 0,0 -0.5917569914531065,-0.010187633259388302 l 0.3454920864977747 -13.37714103399555" fill="#ff960d" stroke="none" /><path d="M 99.45781275523022 120.99299961872073 l -0.34468465956736627 13.34587819370242 a34.350328545608264,34.350328545608264 0 0,0 -0.5909559341341821,-0.02035371724870992 l 0.5743609453761914 -13.337967678027617" fill="#ff950d" stroke="none" /><path d="M 99.09653310690486 120.98055641714683 l -0.577822003640894 13.418341323969258 a34.430776677260056,34.430776677260056 0 0,0 -0.5919010092514976,-0.030594521244054516 l 0.8087110813058804 -13.406406995963003" fill="#ff960d" stroke="none" /><path d="M 98.73552117531835 120.96189622390904 l -0.8174628406018494 13.551489275363704 a34.57612268197597,34.57612268197597 0 0,0 -0.5937827346188966,-0.04095073387184593 l 1.050608335999676 -13.535410196975572" fill="#ff980e" stroke="none" /><path d="M 98.37488393609728 120.93702456842531 l -0.5535588208375185 7.131721167108874 a28.153172315379784,28.153172315379784 0 0,0 -0.48283452299931173,-0.04166099430609808 l 0.676237661578372 -7.121135920524113" fill="#ff3e05" stroke="none" /><path d="M 98.01472825383883 120.90594882070398 l -0.991767993984949 10.443835189995342 a31.490819664338815,31.490819664338815 0 0,0 -0.5391939170222776,-0.05588965413026935 l 1.1713945076128198 -10.425216167409312" fill="#ff6e0a" stroke="none" /><path d="M 97.65516085044442 120.86867818915974 l -0.7017322894998269 6.245300590144822 a27.284600835963246,27.284600835963246 0 0,0 -0.4662711910960165,-0.05645894777460451 l 0.8091309036472328 -6.232296113644869" fill="#ff3104" stroke="none" /><path d="M 96.93821686468263 120.77559828337769 l -1.7756755294471458 12.048770226698004 a33.17891159183125,33.17891159183125 0 0,0 -0.5643008240526557,-0.08813218328443241 l 1.9828122171083187 -12.016419736066466" fill="#ff850c" stroke="none" /><path d="M 96.58105272829116 120.7198165907248 l -1.719082604321715 10.418141443886167 a31.559020605401813,31.559020605401813 0 0,0 -0.5352275070451726,-0.09305616268434935 l 1.8981590828389374 -10.38700670268081" fill="#ff6f0a" stroke="none" /><path d="M 96.22490169976321 120.6578951692458 l -2.389594857503977 13.07621580613931 a34.292764324689465,34.292764324689465 0 0,0 -0.5797639010059608,-0.1111131314775035 l 2.614326373081633 -13.033145476313337" fill="#ff950d" stroke="none" /><path d="M 95.86986931433489 120.58985236759428 l -4.723930080649876 23.550107819349908 a45.01922342020812,45.01922342020812 0 0,0 -0.7584850307565599,-0.15894791280685996 l 5.128606572835824 -23.465303925816507" fill="#dfff1b" stroke="none" /><path d="M 95.51606077576429 120.51570834832081 l -3.2262375283271654 14.761250071325255 a36.1097025866622,36.1097025866622 0 0,0 -0.6060925034864216,-0.13794468052572836 l 3.4798501812064497 -14.70352865722184" fill="#ffad10" stroke="none" /><path d="M 94.81253420990036 120.34920634021253 l -3.671504013190888 14.402445387867264 a35.86305402228545,35.86305402228545 0 0,0 -0.596880006226506,-0.1576414346023776 l 3.9188744622288834 -14.337112603961303" fill="#ffaa0f" stroke="none" /><path d="M 94.46302465271185 120.25689768951611 l -6.988233135509693 25.56629112062747 a47.50416276777877,47.50416276777877 0 0,0 -0.7869151243902616,-0.22239007443541037 l 7.427279428004569 -25.442212252853537" fill="#c1ff1e" stroke="none" /><path d="M 94.11515582081647 120.15858648285463 l -4.969097911238729 17.021689433988687 a38.73216978371906,38.73216978371906 0 0,0 -0.6383892026844998,-0.19234142998235765 l 5.261362088363475 -16.933632634900604" fill="#ffd013" stroke="none" /><path d="M 93.76903079525671 120.05430185196036 l -2.619279553750838 8.430120753220995 a29.827658879600214,29.827658879600214 0 0,0 -0.4890012513407157,-0.1565627585287456 l 2.7640021501824945 -8.383785148032544" fill="#ff5608" stroke="none" /><path d="M 93.42475214034765 119.94407469862007 l -4.5900419189299635 13.922538108818415 a35.65965730189609,35.65965730189609 0 0,0 -0.5813038098821474,-0.19720981367994042 l 4.829015461749337 -13.841465308240352" fill="#ffa70f" stroke="none" /><path d="M 93.08242187328487 119.8279376855182 l -4.829509986484043 13.842882770456766 a35.661158552657355,35.661158552657355 0 0,0 -0.5778473667024393,-0.20719550687493635 l 5.0670769138162095 -13.757699722541872" fill="#ffa70f" stroke="none" /><path d="M 92.7421414339146 119.70592522655815 l -5.082309276888094 13.799057349586437 a35.70523210708074,35.70523210708074 0 0,0 -0.5749048690509556,-0.21737982882090934 l 5.319084366699333 -13.709529270658894" fill="#ffa80f" stroke="none" /><path d="M 92.40401165467489 119.57807347666478 l -4.2908718159981385 11.0593908091319 a32.86261800828292,32.86261800828292 0 0,0 -0.5256124178604535,-0.209152028470716 l 4.480605309900451 -10.983891936255116" fill="#ff810b" stroke="none" /><path d="M 91.7346041902142 119.30500536409082 l -2.948514999322219 6.886675385905425 a28.49133089457833,28.49133089457833 0 0,0 -0.44918526717523755,-0.19690962079143812 l 3.0666209411552 -6.834901211819536" fill="#ff4306" stroke="none" /><path d="M 91.40352486487194 119.15986991738527 l -3.60075738099773 8.025387375584344 a29.796152354580848,29.796152354580848 0 0,0 -0.46614236435570333,-0.21398309663650503 l 3.7383677411208525 -7.962217208613764" fill="#ff5607" stroke="none" /><path d="M 91.07499286063937 119.00905698771935 l -1.2570006191116605 2.6772411527733295 a23.957646149651808,23.957646149651808 0 0,0 -0.3717853992716334,-0.1784795850118929 l 1.302898686383536 -2.6552072912618745" fill="#ff0000" stroke="none" /><path d="M 90.7491055286396 118.85261126421891 l -6.446660008637017 13.137797158067382 a35.634245434373554,35.634245434373554 0 0,0 -0.548336531656726,-0.27494732025235197 l 6.671850447976503 -13.024881996905728" fill="#ffa70f" stroke="none" /><path d="M 90.42595943632237 118.69057910512821 l -3.359616932171037 6.55869229047328 a28.36908885087186,28.36908885087186 0 0,0 -0.43270844028421057,-0.22637260489283595 l 3.472016274981743 -6.499890266635727" fill="#ff4106" stroke="none" /><line stroke="#e1ed5e" stroke-width="0.3" x1="58.666819895761336" x2="56.23545636021788" y1="174.27360380694188" y2="178.64263932499728" /><path d="M 58.180547188652646 175.14741091055294 a86.0,86.0 0 0,1 -31.652253787137756,-30.449443065178592" fill="none" id="id8" stroke="none" /><text fill="#e1ed5e" style="font-size:6.75px; font-family:Arial;" text-anchor="middle"><textPath startOffset="22.20632615414155" xlink:href="#id8">August</textPath></text><path d="M 89.1626897886671 117.98757091392108 l -6.718806214594145 11.151752684492141 a34.01936806781906,34.01936806781906 0 0,0 -0.4989844271450903,-0.3065169899829409 l 6.909769841671544 -11.034447227680822" fill="#ff910d" stroke="none" /><path d="M 88.54995079064634 117.60387380957326 l -7.984487243162384 12.27574688045487 a35.64397480225981,35.64397480225981 0 0,0 -0.5114491164474356,-0.3389605859134508 l 8.194611058349782 -12.136488273450102" fill="#ffa70f" stroke="none" /><path d="M 87.65650970185807 116.9893568818739 l -3.459397699537414 4.761452449362866 a26.885478899045378,26.885478899045378 0 0,0 -0.37206305931224465,-0.2752433565076964 l 3.5408457292682227 -4.7011991441154" fill="#ff2c04" stroke="none" /><path d="M 87.07902340077011 116.55440617244103 l -4.728138906537818 6.0577102123390105 a28.684474642823215,28.684474642823215 0 0,0 -0.38661550585666893,-0.3071507400833683 l 4.8317119051118445 -5.975425558250512" fill="#ff4606" stroke="none" /><path d="M 86.79598089348748 116.32954008644616 l -9.211790118915225 11.392311295623779 a35.65065984354771,35.65065984354771 0 0,0 -0.47386495711554744,-0.38995859914405745 l 9.40652520457546 -11.232057577622541" fill="#ffa70f" stroke="none" /><path d="M 86.51685102203217 116.09983520530335 l -9.42466052195711 11.253712431523326 a35.67890559427233,35.67890559427233 0 0,0 -0.46745231842534796,-0.3983730069235596 l 9.616978316959514 -11.089815034376816" fill="#ffa70f" stroke="none" /><path d="M 85.18274418774928 114.88116024355367 l -6.545482875171355 6.5737124857039 a30.276693479568074,30.276693479568074 0 0,0 -0.3661452453074438,-0.3709032004025007 l 6.657668745534332 -6.460068791320734" fill="#ff5d08" stroke="none" /><path d="M 84.9287848128048 114.62390073753433 l -10.537749317789253 10.224988370632454 a35.683138215794905,35.683138215794905 0 0,0 -0.42393853386095165,-0.4444978578692843 l 10.71219440302916 -10.04208339618067" fill="#ffa70f" stroke="none" /><path d="M 84.67929136418377 114.36230785411682 l -7.6147133691838995 7.1383680891501875 a31.437440235566655,31.437440235566655 0 0,0 -0.36670066233912263,-0.39798114470872403 l 7.736460439518753 -7.006235689640121" fill="#ff6d0a" stroke="none" /><path d="M 84.4343377721795 114.09645910891817 l -6.875976785955863 6.226970891341836 a30.276541556130844,30.276541556130844 0 0,0 -0.3465094679176437,-0.3893070605271138 l 6.98214510352184 -6.107689661073856" fill="#ff5d08" stroke="none" /><path d="M 84.19399662182784 113.82643327865904 l -11.105971332163724 9.715041047689512 a35.75549463044647,35.75549463044647 0 0,0 -0.4012404825555442,-0.46673332900058634 l 11.27155432429005 -9.522430619527396" fill="#ffa80f" stroke="none" /><path d="M 83.95833913139862 113.55231037782056 l -5.781682801948873 4.8844792618377975 a28.56875113091155,28.56875113091155 0 0,0 -0.31412566257969204,-0.3783845964467406 l 5.864904464422101 -4.784233408277295" fill="#ff4406" stroke="none" /><path d="M 83.72743513129214 113.27417163493432 l -11.366369876094339 9.271995276636696 a35.66847846813561,35.66847846813561 0 0,0 -0.3840001945667778,-0.47909928545115293 l 11.524287982715977 -9.074968157607284" fill="#ffa70f" stroke="none" /><path d="M 83.50135304334701 112.99209946851258 l -11.534981889743083 9.083389230206038 a35.68209001144333,35.68209001144333 0 0,0 -0.3758397646639295,-0.4858235595382546 l 11.689628471625081 -8.88348767655453" fill="#ffa70f" stroke="none" /><path d="M 83.06392112726016 112.41649034213515 l -11.84654448027423 8.685157068071888 a35.68919907347555,35.68919907347555 0 0,0 -0.3589657161070373,-0.49857198364390565 l 11.994289988756876 -8.479951478976842" fill="#ffa80f" stroke="none" /><line stroke="#e1ed5e" stroke-width="0.3" x1="26.63291911575756" x2="22.317208475507996" y1="142.92168965132927" y2="145.44649492493687" /><path d="M 25.769776987707644 143.4266507060508 a86.0,86.0 0 0,1 -11.730757126820373,-40.83630448921669" fill="none" id="id9" stroke="none" /><text fill="#e1ed5e" style="font-size:6.75px; font-family:Arial;" text-anchor="middle"><textPath startOffset="21.46611528233685" xlink:href="#id9">September</textPath></text><path d="M 80.73074385275274 108.34839909993369 l -4.486460700177782 1.9437576720678302 a25.88942977267925,25.88942977267925 0 0,0 -0.17364289433202654,-0.4104405089191385 l 4.5192545757021145 -1.8662426374825327" fill="#ff1d02" stroke="none" /><path d="M 80.45479744820244 107.68017299344265 l -13.658056585370124 5.366853428706162 a35.67465929466123,35.67465929466123 0 0,0 -0.21966369144534703,-0.5734725828159082 l 13.74841455640898 -5.130957279057096" fill="#ffa70f" stroke="none" /><path d="M 80.0844068197444 106.66101706037122 l -13.905312030518047 4.650804012048874 a35.66245820538152,35.66245820538152 0 0,0 -0.18970347282620278,-0.5838472552621798 l 13.9833077543605 -4.410757856808891" fill="#ffa70f" stroke="none" /><path d="M 79.97269907076064 106.31721596034903 l -5.6105519523493 1.769737642879396 a26.883048914859952,26.883048914859952 0 0,0 -0.13540508802858606,-0.44251166216338217 l 5.6401838128840165 -1.672899008163966" fill="#ff2c04" stroke="none" /><path d="M 79.86692584326677 105.97154293290107 l -8.491437293908993 2.5185911484688313 a29.85707675757267,29.85707675757267 0 0,0 -0.14190267149821514,-0.4939818153668619 l 8.533532602293311 -2.3720518575973735" fill="#ff5708" stroke="none" /><path d="M 79.76711848015287 105.62410040840567 l -14.119516928802415 3.9247786257173956 a35.65485058141591,35.65485058141591 0 0,0 -0.15927857718044264,-0.5927348387735095 l 14.184983582324632 -3.681152853768347" fill="#ffa70f" stroke="none" /><path d="M 79.58551787078972 104.9243191809786 l -7.397680500426627 1.784445951282695 a28.609857038042275,28.609857038042275 0 0,0 -0.11135969157606185,-0.47973463675576994 l 7.427300757933243 -1.6568426571783506" fill="#ff4506" stroke="none" /><path d="M 79.50377843672027 104.57218783832718 l -14.382007088534534 3.208261468969533 a35.735503708659984,35.735503708659984 0 0,0 -0.12876005903724144,-0.6015241293911301 l 14.435101186296217 -2.960223520162239" fill="#ffa80f" stroke="none" /><path d="M 79.4281124754447 104.21870165774334 l -17.897891833030236 3.6703421529011058 a39.27035696384209,39.27035696384209 0 0,0 -0.13009720790685705,-0.6633628602887776 l 17.95841897391276 -3.3617155655443733" fill="#ffd714" stroke="none" /><path d="M 79.35854240842038 103.8639653848113 l -14.488669711023308 2.7121979146567474 a35.740338107499184,35.740338107499184 0 0,0 -0.10799293356767098,-0.605681722614959 l 14.533209086930167 -2.4623974413085743" fill="#ffa80f" stroke="none" /><path d="M 79.23777060512086 103.15116336523772 l -7.523788883234519 1.1419143602410555 a28.609951876694627,28.609951876694627 0 0,0 -0.06970739705431023,-0.4875333726427623 l 7.542330331305428 -1.0122355156178926" fill="#ff4506" stroke="none" /><path d="M 79.1416061653843 102.43462659150553 l -4.460755929167136 0.5206668878474732 a25.49103968672072,25.49103968672072 0 0,0 -0.0471192139516117,-0.43626540106611517 l 4.469057444619799 -0.4438051648965759" fill="#ff1702" stroke="none" /><line stroke="#e1ed5e" stroke-width="0.3" x1="15.007084014347285" x2="10.007500721073583" y1="101.09737516637583" y2="101.16192664675087" /><path d="M 14.007167355692545 101.11028546245083 a86.0,86.0 0 0,1 10.666146001902534,-42.60595125391555" fill="none" id="id10" stroke="none" /><text fill="#e1ed5e" style="font-size:6.75px; font-family:Arial;" text-anchor="middle"><textPath startOffset="22.20632615414155" xlink:href="#id10">October</textPath></text><path d="M 79.08570108090925 98.10471618934814 l -3.4036937679608106 -0.3084476185306998 a24.417641174762576,24.417641174762576 0 0,0 0.04153658699154675,-0.41826776252576753 l 3.397880055287035 0.36699091176089765" fill="#ff0701" stroke="none" /><path d="M 79.12142395522702 97.74499172005258 l -4.960280934113334 -0.5357393412895717 a25.98912853984878,25.98912853984878 0 0,0 0.05186643823092453,-0.4443599684625118 l 4.950324142878821 0.6210430480769452" fill="#ff1e03" stroke="none" /><path d="M 79.26566170972629 96.67025291283419 l -14.504598090747626 -2.3293071892163155 a35.690440352687,35.690440352687 0 0,0 0.10263234544868012,-0.6057419125220904 l 14.462353883778723 2.578634890054234" fill="#ffa80f" stroke="none" /><path d="M 79.32604984820605 96.31383870115002 l -14.469112983199055 -2.579840036168807 a35.69730605018481,35.69730605018481 0 0,0 0.1130657366807695,-0.6040016864361238 l 14.422561522608424 2.8285198000675034" fill="#ffa80f" stroke="none" /><path d="M 79.3925641242962 95.95851677861259 l -14.45545800636622 -2.8349713832703665 a35.73082919993912,35.73082919993912 0 0,0 0.12356180828765001,-0.6025312592936182 l 14.404516902163575 3.083378298727387" fill="#ffa80f" stroke="none" /><path d="M 80.02781315780177 93.51064311812611 l -4.798134152954501 -1.5590082914627086 a26.045056808659133,26.045056808659133 0 0,0 0.14220936654994198,-0.42518790523449795 l 4.770587492632786 1.6413692996195286" fill="#ff1f03" stroke="none" /><path d="M 80.2630227832202 92.82701384747504 l -8.892171253842285 -3.2316712214403527 a30.461205445985456,30.461205445985456 0 0,0 0.1833407903372283,-0.4912621667976712 l 8.83522587500343 3.3842565252673653" fill="#ff5f08" stroke="none" /><path d="M 80.38941819471856 92.48833698450439 l -6.046316009268338 -2.315988826735792 a27.474700111163422,27.474700111163422 0 0,0 0.17296821760771536,-0.44018524726625774 l 6.005554241778931 2.4197230788978135" fill="#ff3405" stroke="none" /><path d="M 80.65960295795067 91.81776055985345 l -17.18157253743335 -7.268916980032663 a39.65592637532886,39.65592637532886 0 0,0 0.27137738237759607,-0.6263764143289249 l 17.053904445213075 7.563592538948187" fill="#ffdc14" stroke="none" /><path d="M 80.95270993114464 91.15688171328213 l -13.34086723049363 -6.193787491038251 a35.708560158825904,35.708560158825904 0 0,0 0.26363426963499237,-0.5552810069724248 l 13.232274767016886 6.422510913651209" fill="#ffa80f" stroke="none" /><path d="M 81.26839172434947 90.50648371742162 l -56.19482482695157 -28.480548847735136 a84.0,84.0 0 0,0 0.6647622673595439,-1.284109110958658 l 55.69625312643191 29.44363068095413" fill="#4dd2ff" stroke="none" /><line stroke="#e1ed5e" stroke-width="0.3" x1="26.266209847984243" x2="21.928928074336255" y1="57.711370442889674" y2="55.22380399835377" /><path d="M 25.398753493254645 57.213857153982495 a86.0,86.0 0 0,1 29.58750427330803,-30.492523968695096" fill="none" id="id11" stroke="none" /><text fill="#e1ed5e" style="font-size:6.75px; font-family:Arial;" text-anchor="middle"><textPath startOffset="21.46611528233685" xlink:href="#id11">November</textPath></text><path d="M 81.96595687620814 89.24020034530311 l -4.235240150263984 -2.5269062069752417 a25.93178609727329,25.93178609727329 0 0,0 0.2320082347570814,-0.381360535482797 l 4.191116117220683 2.5994345156651133" fill="#ff1e03" stroke="none" /><path d="M 83.17141714833178 87.43820079747576 l -5.081153525371511 -3.792858309313178 a27.340654169951343,27.340654169951343 0 0,0 0.28476470842763835,-0.37471697654685193 l 5.015112876719764 3.8797600617410564" fill="#ff3204" stroke="none" /><path d="M 83.39014120810768 87.1503855733568 l -7.141643642326895 -5.5248734095910725 a30.029246929063056,30.029246929063056 0 0,0 0.3198056446914752,-0.4061206919864758 l 7.045483917041449 5.646986495530596" fill="#ff5908" stroke="none" /><path d="M 83.6137871275137 86.86637796730984 l -7.011588095179307 -5.619818844512694 a29.985807223705624,29.985807223705624 0 0,0 0.326276293663016,-0.3999761566876318 l 6.913813309439899 5.739679170808408" fill="#ff5808" stroke="none" /><path d="M 84.5562425177563 85.77008943001954 l -21.63067635771936 -19.930550611949844 a50.41280346019219,50.41280346019219 0 0,0 0.5935091622114411,-0.6331141930175589 l 21.28439987353746 20.299934221845454" fill="#9fff22" stroke="none" /><path d="M 85.05521093208273 85.24692304244772 l -4.418032384615025 -4.361357759883542 a27.20809565496566,27.20809565496566 0 0,0 0.3318923834488294,-0.330467132079248 l 4.34230420099888 4.436760742612901" fill="#ff3004" stroke="none" /><path d="M 85.57189188830299 84.74124197986013 l -7.120982914607518 -7.530949610188795 a31.364535672249623,31.364535672249623 0 0,0 0.395480084497462,-0.36755563756374676 l 6.9902949463152 7.652409833827192" fill="#ff6c09" stroke="none" /><path d="M 85.83668400450813 84.49514656593479 l -9.88725415497757 -10.82376659442425 a35.65986759884603,35.65986759884603 0 0,0 0.45676726513676247,-0.4100901605846473 l 9.699475902244837 10.992355763778177" fill="#ffa70f" stroke="none" /><path d="M 87.80319425747018 82.90503203632743 l -8.589932205501306 -12.039596183049971 a35.78982121413305,35.78982121413305 0 0,0 0.5045834086368054,-0.35349292355141854 l 8.38141765728084 12.185673949365333" fill="#ffa90f" stroke="none" /><path d="M 88.70189139769569 82.29822771554957 l -5.732269238892478 -8.981266538661076 a31.654673118666103,31.654673118666103 0 0,0 0.46182788483221515,-0.28919657911376284 l 5.57682220168802 9.07860745909777" fill="#ff700a" stroke="none" /><line stroke="#e1ed5e" stroke-width="0.3" x1="56.76296977257108" x2="54.21961505331056" y1="26.818313649435495" y2="22.513508569990535" /><path d="M 56.25429882871898 25.957352633546506 a86.0,86.0 0 0,1 42.26535254187918,-11.944610805530505" fill="none" id="id12" stroke="none" /><text fill="#e1ed5e" style="font-size:6.75px; font-family:Arial;" text-anchor="middle"><textPath startOffset="22.20632615414155" xlink:href="#id12">December</textPath></text><path d="M 90.26544431104013 81.39251694778311 l -4.111618402889592 -7.85930783011688 a29.869843598368398,29.869843598368398 0 0,0 0.4576337578637588,-0.2344177853694061 l 3.975724157437069 7.928918140798792" fill="#ff5708" stroke="none" /><path d="M 90.91171255644093 81.06846463323043 l -26.952469027390112 -56.143869104340006 a83.27816330526846,83.27816330526846 0 0,0 1.297639502687298,-0.6092591459577716 l 25.982051313403204 56.59949323293779" fill="#4cd9ff" stroke="none" /></svg>