<?xml version="1.0" encoding="utf-8" ?>
<svg baseProfile="full" height="200mm" version="1.1" viewBox="0,0,200,200" width="200mm" xmlns="http://www.w3.org/2000/svg" xmlns:ev="http://www.w3.org/2001/xml-events" xmlns:xlink="http://www.w3.org/1999/xlink"><defs /><rect fill="#1a1a1a" height="200" width="200" x="0" y="0" /><text alignment-baseline="middle" fill="#e1ed5e" style="dominant-baseline: central; font-size:9.0px; font-family:Arial;" text-anchor="middle" x="100.0" y="100.0">2016</text><line stroke="#e1ed5e" stroke-width="0.3" x1="100.0" x2="100.0" y1="15.0" y2="10.0" /><path d="M 100.0 14.0 a86.0,86.0 0 0,1 42.35913384403234,11.155469271406648" fill="none" id="id13" stroke="none" /><text fill="#e1ed5e" style="font-size:6.75px; font-family:Arial;" text-anchor="middle"><textPath startOffset="22.145653131862478" xlink:href="#id13">January</textPath></text><path d="M 100.72087961077811 79.0123766808444 l 0.32808231689202627 -9.551758687103579 a30.55739148634793,30.55739148634793 0 0,0 0.5240945350770404,0.022506874376199207 l -0.4920026125699029 9.544719244301548" fill="#ff2803" stroke="none" /><line stroke="#e1ed5e" stroke-width="0.3" x1="143.13028292997686" x2="145.6673583964461" y1="26.7553504044142" y2="22.446841604673864" /><path d="M 143.63769802327073 25.89364864446614 a86.0,86.0 0 0,1 29.32050498858742,28.57503671076993" fill="none" id="id14" stroke="none" /><text fill="#e1ed5e" style="font-size:6.75px; font-family:Arial;" text-anchor="middle"><textPath startOffset="20.669276256404974" xlink:href="#id14">February</textPath></text><path d="M 115.41159269507618 85.73525988315684 l 14.71658345099125 -13.621449936403689 a41.05297301748401,41.05297301748401 0 0,0 0.4742640781579993,0.5212993007337032 l -14.948245229991127 13.366813060112314" fill="#ffc512" stroke="none" /><path d="M 117.01052211995028 87.68569379921539 l 23.18494613517898 -16.78411302980782 a49.6225117257119,49.6225117257119 0 0,0 0.49359016535815253,0.6942963815661346 l -23.469651399067093 16.38363942153218" fill="#c6ff1e" stroke="none" /><path d="M 117.62189284568427 88.57770195909679 l 29.473345901809694 -19.104266726690067 a56.12337008050679,56.12337008050679 0 0,0 0.5170894855671865,0.8129505575923013 l -29.79695307900277 18.595502494419094" fill="#76ff27" stroke="none" /><path d="M 117.81537515405839 88.88188828441811 l 29.768050049231977 -18.57746486618328 a56.0893004288751,56.0893004288751 0 0,0 0.5027525329523636,0.821208479258009 l -30.082570546639744 18.063719270800718" fill="#77ff27" stroke="none" /><line stroke="#e1ed5e" stroke-width="0.3" x1="172.87174338648825" x2="177.1583165268699" y1="56.24261187166439" y2="53.66864786411523" /><path d="M 173.72905801456457 55.72781907015455 a86.0,86.0 0 0,1 12.242430191666344,42.057860355516425" fill="none" id="id15" stroke="none" /><text fill="#e1ed5e" style="font-size:6.75px; font-family:Arial;" text-anchor="middle"><textPath startOffset="22.145653131862474" xlink:href="#id15">March</textPath></text><path d="M 118.00360718960297 89.18935116829356 l 30.111979684518047 -18.081378613103475 a56.12360421527414,56.12360421527414 0 0,0 0.48888012824978233,0.8302253371728449 l -30.4179335228976 17.561802107637074" fill="#76ff27" stroke="none" /><path d="M 118.53625476483649 90.13048839642627 l 30.94677264040897 -16.477413347116798 a56.06006114468296,56.06006114468296 0 0,0 0.44498856407570864,0.8533242455566407 l -31.22506927345962 15.943742858455659" fill="#77ff27" stroke="none" /><path d="M 119.0197475246899 91.09779779509293 l 13.63529389934945 -6.382006031245872 a36.054940740650395,36.054940740650395 0 0,0 0.2575619633251466,0.5628193723991359 l -13.742840327529649 6.1469976766320515" fill="#ff7c0b" stroke="none" /><path d="M 119.4528033332814 92.08871423366111 l 19.64605139835965 -7.989878072056103 a42.20861822828899,42.20861822828899 0 0,0 0.26720331595798724,0.6735269063390764 l -19.780313389283762 7.651450148503461" fill="#ffd513" stroke="none" /><path d="M 120.82617615685814 97.30363454192243 l 21.34547711742195 -2.763599364189984 a42.52363526024671,42.52363526024671 0 0,0 0.08751346669537463,0.7247370447545146 l -21.38977267037699 2.3967686425120562" fill="#ffda14" stroke="none" /><line stroke="#e1ed5e" stroke-width="0.3" x1="184.99686870605535" x2="189.99668451229388" y1="99.2704041080226" y2="99.22748670261217" /><path d="M 185.99683186730306 99.26182062694052 a86.0,86.0 0 0,1 -10.086455211305974,41.156179273409016" fill="none" id="id16" stroke="none" /><text fill="#e1ed5e" style="font-size:6.75px; font-family:Arial;" text-anchor="middle"><textPath startOffset="21.40746469413373" xlink:href="#id16">April</textPath></text><path d="M 120.98066250479742 100.90099992219065 l 35.4274149637671 1.5214056333288326 a56.46006776806939,56.46006776806939 0 0,0 -0.049895672235693356,0.9679627116364894 l -35.396077702074834 -2.1293401383420525" fill="#72ff27" stroke="none" /><path d="M 120.9064616781168 101.97986365728391 l 35.054458312672956 3.3196936481930197 a56.211296674686366,56.211296674686366 0 0,0 -0.0992199182492335,0.9598627040073823 l -34.992306001942055 -3.9209608744833333" fill="#75ff27" stroke="none" /><path d="M 120.77682067341334 103.0534771498775 l 14.273149636031533 2.0976614735946715 a35.426468181448655,35.426468181448655 0 0,0 -0.09359083778656736,0.6009203161267354 l -14.235037306106697 -2.3423699716528574" fill="#ff730a" stroke="none" /><path d="M 120.65975698304385 103.76489593502545 l 61.97927094913153 11.294687805076347 a84.0,84.0 0 0,0 -0.27069483087136303,1.4163897398667418 l -61.776249825978006 -12.356980109976403" fill="#4dd2ff" stroke="none" /><path d="M 120.592083275326 104.11899336999214 l 34.358443583622865 6.872650981057712 a56.0390635861809,56.0390635861809 0 0,0 -0.1967832777192371,0.9416792202349583 l -34.23540259507926 -7.461446652578079" fill="#77ff27" stroke="none" /><path d="M 120.16314734710363 105.8691983318838 l 17.87329746140308 5.202656402786177 a39.61511202730861,39.61511202730861 0 0,0 -0.19566786680671047,0.6513146910747869 l -17.78135327459274 -5.508708697451687" fill="#ffb110" stroke="none" /><path d="M 120.05942366710727 106.21446072829308 l 33.58685083320153 10.405292243377207 a56.16172145333354,56.16172145333354 0 0,0 -0.2932050616178508,0.9184606794416045 l -33.403281055806424 -10.980321956510195" fill="#76ff27" stroke="none" /><path d="M 119.31412917781788 108.2440532568976 l 32.21262685963248 13.749654925181765 a56.02436779956907,56.02436779956907 0 0,0 -0.3851438329370237,0.881284461953641 l -31.971849144678487 -14.30060145691125" fill="#77ff26" stroke="none" /><line stroke="#e1ed5e" stroke-width="0.3" x1="174.33088141563837" x2="178.70328620479359" y1="141.23008692659167" y2="143.65538615756765" /><path d="M 175.20536237346943 141.71514677278685 a86.0,86.0 0 0,1 -30.301960400862466,31.631185727798858" fill="none" id="id17" stroke="none" /><text fill="#e1ed5e" style="font-size:6.75px; font-family:Arial;" text-anchor="middle"><textPath startOffset="22.145653131862474" xlink:href="#id17">May</textPath></text><path d="M 118.36410011445183 110.18625677009912 l 13.587913368105568 7.5369864940162445 a36.538261006628936,36.538261006628936 0 0,0 -0.308951240710366,0.5458872391990972 l -13.456528762373823 -7.769130503314464" fill="#ff840c" stroke="none" /><path d="M 118.00360718960297 110.81064883170644 l 30.08868064063912 18.067388206690083 a56.096427443624734,56.096427443624734 0 0,0 -0.5028164154520564,0.8213128265203049 l -29.77409626073166 -18.581238149334947" fill="#77ff27" stroke="none" /><path d="M 115.16444852881244 114.52719865689866 l 8.570492675531643 8.210338110771596 a32.86857180095946,32.86857180095946 0 0,0 -0.393817452021129,0.40409139919761883 l -8.428288422359705 -8.356252202036954" fill="#ff4c07" stroke="none" /><path d="M 113.03279911837588 116.46651593811092 l 9.160026103029505 11.573393746733668 a35.75972631945172,35.75972631945172 0 0,0 -0.48461249967056025,0.37683761089632906 l -8.960003658723714 -11.72893240925079" fill="#ff780b" stroke="none" /><line stroke="#e1ed5e" stroke-width="0.3" x1="143.1302829299769" x2="145.6673583964461" y1="173.24464959558577" y2="177.55315839532614" /><path d="M 143.63769802327073 174.10635135553383 a86.0,86.0 0 0,1 -40.685524379131806,11.842963189579606" fill="none" id="id18" stroke="none" /><text fill="#e1ed5e" style="font-size:6.75px; font-family:Arial;" text-anchor="middle"><textPath startOffset="21.407464694133747" xlink:href="#id18">June</textPath></text><path d="M 109.06512990194946 118.94263497670748 l 3.640138877928252 7.606490229587101 a29.43263331726269,29.43263331726269 0 0,0 -0.4576231885032285,0.21419075896889295 l -3.5090269755535175 -7.667857220126527" fill="#ff1602" stroke="none" /><path d="M 103.2317021107853 120.74984581791261 l 1.4430674824404541 9.265528424031162 a30.377230973768665,30.377230973768665 0 0,0 -0.5159426499761849,0.0758258020855666 l -1.2837997268565837 -9.288935299415611" fill="#ff2503" stroke="none" /><path d="M 101.44090949804482 120.95050786540614 l 0.8274276815564552 12.030616894416577 a33.05903725130773,33.05903725130773 0 0,0 -0.5664991079974434,0.03407917959574531 l -0.6207842214265467 -12.043048051837014" fill="#ff4f07" stroke="none" /><line stroke="#e1ed5e" stroke-width="0.3" x1="101.45913802915013" x2="101.54496967792366" y1="184.9874750549273" y2="189.98673829345242" /><path d="M 101.47630435890484 185.9873277026323 a86.0,86.0 0 0,1 -42.54439059252881,-10.42667462771756" fill="none" id="id19" stroke="none" /><text fill="#e1ed5e" style="font-size:6.75px; font-family:Arial;" text-anchor="middle"><textPath startOffset="22.145653131862474" xlink:href="#id19">July</textPath></text><path d="M 99.63950707515114 120.99690560180557 l -0.29806504428322245 17.36079453053595 a38.36335306045784,38.36335306045784 0 0,0 -0.6583638890758279,-0.016957118405099645 l 0.5960422474297942 -17.353119694780805" fill="#ff9e0e" stroke="none" /><path d="M 99.27912038922189 120.98762331915562 l -0.5086777977570611 14.809599065535208 a35.818332483239544,35.818332483239544 0 0,0 -0.6143257456522416,-0.02638179079930613 l 0.7628293040101415 -14.798684706310073" fill="#ff790b" stroke="none" /><path d="M 98.55909050195518 120.95050786540614 l -1.243995075962023 18.0874153850974 a39.13014393384884,39.13014393384884 0 0,0 -0.6697422366063327,-0.05184228485926812 l 1.5543063073435919 -18.06339533324308" fill="#ffaa0f" stroke="none" /><path d="M 97.84075906011543 120.88869738790638 l -1.5835701688282844 15.319604884361903 a36.40123333673534,36.40123333673534 0 0,0 -0.6210121448573531,-0.06958570613864475 l 1.8463182152864368 -15.290163417716288" fill="#ff820b" stroke="none" /><path d="M 96.76829788921471 120.74984581791261 l -2.366675230961117 15.195752721027507 a36.378948351804155,36.378948351804155 0 0,0 -0.616229064000353,-0.10140025797859559 l 2.6271817980145338 -15.152886464553243" fill="#ff810b" stroke="none" /><path d="M 96.05791012581884 120.62667999033965 l -4.119256607466503 21.553691202424076 a42.9437890859261,42.9437890859261 0 0,0 -0.7228943031662933,-0.14459910646898375 l 4.488647396163754 -21.47980269929223" fill="#ffdf14" stroke="none" /><path d="M 93.27111125876986 119.89276391827306 l -2.261431885623735 6.685521539734061 a28.057639295937687,28.057639295937687 0 0,0 -0.45492686810997907,-0.15824717983980807 l 2.375864525778736 -6.6457159273256625" fill="#ff0000" stroke="none" /><line stroke="#e1ed5e" stroke-width="0.3" x1="58.13341422392154" x2="55.67067388415222" y1="173.97424548756322" y2="178.32567169271397" /><path d="M 57.64086615596768 174.84453072859336 a86.0,86.0 0 0,1 -31.369924170532247,-30.572349798747897" fill="none" id="id20" stroke="none" /><text fill="#e1ed5e" style="font-size:6.75px; font-family:Arial;" text-anchor="middle"><textPath startOffset="22.145653131862474" xlink:href="#id20">August</textPath></text><path d="M 87.2517909369889 116.68781488649013 l -13.36452099372336 17.494586987671227 a43.01524461051632,43.01524461051632 0 0,0 -0.5829386116779064,-0.4532965903134098 l 13.662869550036495 -17.262589345737023" fill="#ffe015" stroke="none" /><path d="M 85.34317274990678 115.03919595460226 l -9.91746815115763 10.1761960043459 a35.20954396341035,35.20954396341035 0 0,0 -0.42923465443677866,-0.42556600422125623 l 10.090694725724372 -10.004449989895985" fill="#ff700a" stroke="none" /><path d="M 84.3458050057657 113.99807769240083 l -11.312068838480231 10.115321709046967 a36.175066216792345,36.175066216792345 0 0,0 -0.40996502476961305,-0.4664649419462184 l 11.484044927208435 -9.919644489289448" fill="#ff7e0b" stroke="none" /><path d="M 83.4222238831116 112.89097897827486 l -11.70103948903174 9.098799079775716 a35.82236384042733,35.82236384042733 0 0,0 -0.37331683299869145,-0.48868371802661387 l 11.855508299384725 -8.896594448508232" fill="#ff790b" stroke="none" /><line stroke="#e1ed5e" stroke-width="0.3" x1="26.387840678322732" x2="22.057713659400548" y1="142.50000000000003" y2="145.00000000000006" /><path d="M 25.521815274538298 143.00000000000003 a86.0,86.0 0 0,1 -11.493303480769221,-40.785679425670985" fill="none" id="id21" stroke="none" /><text fill="#e1ed5e" style="font-size:6.75px; font-family:Arial;" text-anchor="middle"><textPath startOffset="21.40746469413373" xlink:href="#id21">September</textPath></text><path d="M 81.1358732173502 109.22738970284198 l -9.483426924611598 4.6388193294109845 a31.55717912159139,31.55717912159139 0 0,0 -0.23385483959971548,-0.4886666724016028 l 9.561661022171224 -4.475340154944278" fill="#ff3805" stroke="none" /><path d="M 80.9802524753101 108.90220220490708 l -7.823800248433974 3.6619335631005985 a29.638379926117985,29.638379926117985 0 0,0 -0.21172463930694063,-0.462656547099451 l 7.885509352595971 -3.5270880337864585" fill="#ff1902" stroke="none" /><path d="M 80.83023694016515 108.57439118712176 l -7.336098229500946 3.2813434266534145 a29.03651366679162,29.03651366679162 0 0,0 -0.19961375037314097,-0.45675532502920035 l 7.391345861891055 -3.154926031848365" fill="#ff1001" stroke="none" /><path d="M 80.16572619554312 106.89939002012753 l -11.150789585006201 3.8788234516580236 a32.80615855129072,32.80615855129072 0 0,0 -0.1804566464229726,-0.5334880101048068 l 11.21573165300154 -3.686833767079055" fill="#ff4b07" stroke="none" /><line stroke="#e1ed5e" stroke-width="0.3" x1="15.003131293944662" x2="10.003315487706104" y1="100.72959589197737" y2="100.7725132973878" /><path d="M 14.003168132696942 100.73817937305945 a86.0,86.0 0 0,1 10.791469493833604,-42.45332614584628" fill="none" id="id22" stroke="none" /><text fill="#e1ed5e" style="font-size:6.75px; font-family:Arial;" text-anchor="middle"><textPath startOffset="22.145653131862435" xlink:href="#id22">October</textPath></text><path d="M 79.13060592940154 97.66154086499901 l -8.719692630336201 -0.9770597467675202 a29.77426266510713,29.77426266510713 0 0,0 0.061275310263932285,-0.5074474701325858 l 8.7016352338126 1.1266008938235421" fill="#ff1c02" stroke="none" /><line stroke="#e1ed5e" stroke-width="0.3" x1="26.387840678322718" x2="22.05771365940052" y1="57.49999999999999" y2="54.99999999999999" /><path d="M 25.521815274538284 56.99999999999999 a86.0,86.0 0 0,1 29.574782752854787,-30.34633250058573" fill="none" id="id23" stroke="none" /><text fill="#e1ed5e" style="font-size:6.75px; font-family:Arial;" text-anchor="middle"><textPath startOffset="21.40746469413373" xlink:href="#id23">November</textPath></text><path d="M 84.10781606972428 86.27271002978789 l -26.61252268242499 -22.987263254897215 a56.16590160187184,56.16590160187184 0 0,0 0.6365172935255172,-0.7242398361640787 l 26.21399432494088 23.440715368872592" fill="#76ff27" stroke="none" /><line stroke="#e1ed5e" stroke-width="0.3" x1="56.869717070023135" x2="54.33264160355391" y1="26.7553504044142" y2="22.446841604673864" /><path d="M 56.362301976729285 25.89364864446614 a86.0,86.0 0 0,1 42.16139366436587,-11.88097634709845" fill="none" id="id24" stroke="none" /><text fill="#e1ed5e" style="font-size:6.75px; font-family:Arial;" text-anchor="middle"><textPath startOffset="22.145653131862474" xlink:href="#id24">December</textPath></text></svg>